<svg version="1.1" id="Layer_1" xmlns="http://www.w3.org/2000/svg" xmlns:xlink="http://www.w3.org/1999/xlink" x="0px" y="0px"
	 width="100%" viewBox="0 0 544 255" enable-background="new 0 0 544 255" xml:space="preserve">
<path fill="#5963F5" opacity="1.000000" stroke="none" 
	d="
M545.000000,122.000000 
	C545.000000,127.688042 545.000000,133.376083 544.684814,139.675690 
	C543.682617,141.385635 542.696472,142.398178 542.352905,143.595169 
	C535.985535,165.778992 521.384277,181.894241 503.485687,195.238068 
	C476.973450,215.003555 447.065704,228.208252 416.120300,238.675735 
	C417.908447,237.036179 419.485870,235.571381 421.260559,234.407303 
	C430.707764,228.210587 440.055328,221.840012 449.744019,216.042068 
	C454.940216,212.932571 456.093445,208.104889 455.654022,203.258560 
	C455.003754,196.087402 457.499207,190.453812 461.368317,184.898453 
	C462.032440,183.944870 462.007568,181.555222 461.280792,180.752228 
	C457.861603,176.974335 458.646118,173.188080 460.531708,169.199783 
	C461.240356,167.700928 462.060028,166.223770 462.529480,164.647491 
	C466.220459,152.253967 469.980133,139.877747 473.415039,127.412529 
	C474.944336,121.862778 476.807465,116.091835 476.652496,110.472748 
	C476.470612,103.876297 477.905975,98.460823 481.904083,93.398727 
	C483.519684,91.353180 484.607819,88.891045 485.835876,86.789841 
	C483.008850,85.526558 481.198547,84.717621 479.388306,83.908691 
	C480.632599,81.959763 481.872559,80.008049 483.122986,78.063057 
	C483.727753,77.122414 484.240570,76.089890 484.994080,75.285439 
	C486.100677,74.104019 487.287567,72.322495 488.613678,72.152916 
	C492.121613,71.704369 492.870239,69.801628 493.045990,66.732224 
	C493.316376,62.010059 492.316132,57.987022 489.020813,54.340862 
	C487.202209,52.328625 486.312042,49.477306 485.336548,47.088783 
	C494.804810,54.789867 504.090393,62.234283 513.040894,70.061897 
	C527.774963,82.947617 538.391907,98.485748 542.776306,117.879921 
	C543.107666,119.345932 544.239929,120.630898 545.000000,122.000000 
z"/>
<path fill="#5963F5" opacity="1.000000" stroke="none" 
	d="
M226.000000,0.999997 
	C253.354233,1.000000 280.708466,1.000000 308.719543,1.332784 
	C310.572479,2.105232 311.736694,2.785021 312.969452,2.948770 
	C333.541077,5.681286 354.175934,7.992051 374.685028,11.127151 
	C397.398438,14.599212 419.472504,20.800179 440.967224,28.925203 
	C443.869995,30.022455 446.335632,32.276215 448.752167,33.997543 
	C448.333038,34.002663 448.165375,34.004700 447.534668,34.005833 
	C443.046539,34.005672 439.021423,34.006413 434.528625,34.006229 
	C428.372314,34.007511 422.683716,34.009720 416.532471,34.009155 
	C412.044556,34.011768 408.019318,34.017151 403.526794,34.018795 
	C397.703400,34.019470 392.347198,34.023884 386.523315,34.023342 
	C380.029907,34.027470 374.004211,34.036552 367.511292,34.038193 
	C359.355713,34.043541 351.667358,34.056324 343.512817,34.052742 
	C336.690399,34.054924 330.334137,34.073467 323.512695,34.069237 
	C317.692810,34.068142 312.338104,34.089825 306.517029,34.082020 
	C299.367432,34.067997 292.684143,34.083462 285.744873,34.082455 
	C285.317841,34.068947 285.146851,34.071915 284.725952,34.068748 
	C284.476013,34.062618 283.977997,34.106869 283.518921,34.081085 
	C279.366150,34.084446 275.672485,34.113594 271.514038,34.105431 
	C265.692383,34.095985 260.335510,34.123852 254.514694,34.111221 
	C249.024124,34.100922 243.997482,34.131123 238.507233,34.117485 
	C232.689713,34.102757 227.335800,34.131874 221.518799,34.115479 
	C216.364655,34.101730 211.673630,34.133488 206.518997,34.117180 
	C201.030655,34.100945 196.005905,34.132778 190.517715,34.115295 
	C185.031342,34.098652 180.008423,34.131317 174.574341,34.112083 
	C172.781982,34.038017 171.400787,34.015854 169.863251,33.674500 
	C168.653046,30.924047 167.645233,28.471558 166.536133,26.065769 
	C163.942200,20.439230 160.692154,19.089811 154.931412,21.493809 
	C147.133438,24.747959 139.432343,28.234434 131.631561,31.481598 
	C129.544388,32.350403 127.245705,32.711037 124.684296,33.168159 
	C119.847000,31.488312 115.369537,29.945276 111.014252,28.049442 
	C112.583374,26.691341 113.897583,25.296215 115.500938,24.750254 
	C121.482674,22.713396 127.512871,20.785120 133.608200,19.121370 
	C161.099731,11.617421 189.065292,6.707540 217.413452,3.838069 
	C220.341400,3.541696 223.140900,1.976468 226.000000,0.999997 
z"/>
<path fill="#5963F4" opacity="1.000000" stroke="none" 
	d="
M1.000001,148.000000 
	C1.000000,133.645767 1.000000,119.291542 1.315912,104.345848 
	C5.121097,98.330917 8.445642,92.792656 12.130177,87.505264 
	C23.710995,70.886497 39.688572,59.207119 56.661247,48.817066 
	C61.829468,45.653271 67.696945,43.631760 73.168945,41.449532 
	C70.396667,47.875801 67.699615,53.939625 64.707321,60.187996 
	C55.619705,64.325188 46.827332,68.277840 37.696098,72.304199 
	C33.333607,73.863098 30.084873,75.941666 30.748093,81.399033 
	C31.694908,84.057854 32.638233,86.330856 33.666924,88.897842 
	C34.184265,90.126213 34.616241,91.060593 35.093685,92.332016 
	C35.976170,94.492065 36.813187,96.315086 37.743355,98.483353 
	C38.787186,100.922234 39.737865,103.015854 40.780647,105.448952 
	C41.224133,107.134697 41.575516,108.480972 41.686176,110.094070 
	C39.373104,114.804939 36.952084,119.129196 35.367760,123.740883 
	C34.507702,126.244377 35.071587,129.237061 35.040367,132.370209 
	C36.385288,135.775757 37.661594,138.829529 38.984154,141.863129 
	C49.034702,164.916367 59.094296,187.965637 69.151794,211.328293 
	C69.251060,212.044785 69.349594,212.449127 69.065781,212.818024 
	C63.425011,210.004883 57.937855,207.584229 52.948032,204.387329 
	C32.123783,191.045593 13.754538,175.362869 4.166457,151.574005 
	C3.605893,150.183197 2.077826,149.182327 1.000001,148.000000 
z"/>
<path fill="#5863F5" opacity="1.000000" stroke="none" 
	d="
M321.000000,256.000000 
	C289.645782,256.000000 258.291534,256.000000 226.304718,255.677444 
	C219.744995,254.235519 213.829727,253.048416 207.888596,252.009201 
	C188.430817,248.605591 168.955673,245.300156 149.514740,241.803864 
	C147.902435,241.513916 146.497116,240.072906 145.446854,239.110092 
	C148.928589,238.979630 151.959091,238.905792 155.454773,238.888916 
	C161.273941,238.908875 166.627930,238.871872 172.447861,238.889236 
	C178.269989,238.909271 183.626205,238.874954 189.447144,238.891388 
	C194.604507,238.911804 199.297119,238.881470 204.455933,238.897629 
	C210.275314,238.915344 215.628525,238.886566 221.448029,238.899628 
	C226.937241,238.916107 231.960114,238.890732 237.437180,238.906586 
	C240.924637,238.924194 243.957901,238.900528 247.444672,238.908234 
	C250.927078,238.922775 253.955994,238.905975 257.451874,238.918259 
	C262.942017,238.934769 267.965179,238.922180 273.457031,238.933945 
	C280.610596,238.949707 287.295441,238.941116 294.449799,238.950500 
	C301.942627,238.964569 308.965973,238.960678 316.458618,238.971222 
	C323.615997,238.981140 330.304016,238.976639 337.460419,238.981171 
	C343.283997,238.986115 348.639191,238.982040 354.459595,238.984558 
	C359.281555,238.990189 363.638336,238.989227 368.463013,238.991364 
	C374.286041,238.993652 379.641205,238.992844 385.459900,238.994476 
	C389.948456,238.995697 393.973511,238.994492 398.415405,238.994965 
	C400.221954,238.998764 401.611572,239.000900 402.843506,239.319244 
	C401.220825,240.320343 399.819458,241.362793 398.281372,241.636307 
	C376.558838,245.499084 354.810242,249.215317 333.087738,253.078476 
	C329.014130,253.802948 325.027039,255.013672 321.000000,256.000000 
z"/>
<path fill="#5660ED" opacity="1.000000" stroke="none" 
	d="
M321.468658,256.000000 
	C325.027039,255.013672 329.014130,253.802948 333.087738,253.078476 
	C354.810242,249.215317 376.558838,245.499084 398.281372,241.636307 
	C399.819458,241.362793 401.220825,240.320343 403.218323,239.318634 
	C404.500702,238.999649 405.250519,238.997482 406.454376,238.996567 
	C409.939178,238.994965 412.969910,238.992111 416.000641,238.989273 
	C447.065704,228.208252 476.973450,215.003555 503.485687,195.238068 
	C521.384277,181.894241 535.985535,165.778992 542.352905,143.595169 
	C542.696472,142.398178 543.682617,141.385635 544.684814,140.143616 
	C545.000000,150.354233 545.000000,160.708450 544.668945,171.617462 
	C543.128601,173.258636 541.824402,174.257507 540.727173,175.447281 
	C536.896179,179.601501 533.655273,184.495682 529.249084,187.885544 
	C517.803284,196.691254 506.568726,206.174072 493.940369,212.943924 
	C475.963654,222.580933 457.291626,231.416824 438.036469,238.033844 
	C418.750824,244.661331 398.373108,248.099152 378.505310,253.060287 
	C376.233826,253.627502 374.163544,255.000565 372.000000,256.000000 
	C355.312439,256.000000 338.624878,256.000000 321.468658,256.000000 
z"/>
<path fill="#5660ED" opacity="1.000000" stroke="none" 
	d="
M449.003662,33.994457 
	C446.335632,32.276215 443.869995,30.022455 440.967224,28.925203 
	C419.472504,20.800179 397.398438,14.599212 374.685028,11.127151 
	C354.175934,7.992051 333.541077,5.681286 312.969452,2.948770 
	C311.736694,2.785021 310.572479,2.105232 309.188171,1.332784 
	C324.354218,1.000000 339.708466,1.000000 355.703674,1.322436 
	C357.033600,2.061576 357.674377,2.702095 358.418518,2.862257 
	C377.106415,6.884362 396.108551,9.807262 414.424072,15.105865 
	C436.557373,21.508928 458.365295,29.274426 479.792816,37.765511 
	C488.682556,41.288258 496.349396,48.035854 504.348389,53.636799 
	C518.316711,63.417461 531.096619,74.486359 540.883179,88.678886 
	C541.842773,90.070503 543.608459,90.906265 545.000000,92.000000 
	C545.000000,101.687561 545.000000,111.375122 545.000000,121.531342 
	C544.239929,120.630898 543.107666,119.345932 542.776306,117.879921 
	C538.391907,98.485748 527.774963,82.947617 513.040894,70.061897 
	C504.090393,62.234283 494.804810,54.789867 485.092316,46.853348 
	C476.476776,42.493252 468.483490,38.358875 460.360626,34.497021 
	C458.839691,33.773922 456.800262,34.141479 454.571747,34.003780 
	C452.430145,33.999378 450.716919,33.996918 449.003662,33.994457 
z"/>
<path fill="#515ADF" opacity="1.000000" stroke="none" 
	d="
M1.000000,77.000000 
	C1.000000,72.975456 1.000000,68.950912 1.344098,64.387611 
	C3.365194,62.821850 5.237258,62.015736 6.689025,60.733685 
	C21.250399,47.874569 37.753975,37.990894 55.128204,29.583750 
	C78.072395,18.481371 102.137680,10.388117 126.785286,3.960912 
	C128.341721,3.555052 129.601959,2.013303 131.000000,0.999998 
	C140.687561,1.000000 150.375122,1.000000 160.381256,1.321685 
	C158.943069,2.433328 157.253876,3.467040 155.419098,3.975567 
	C136.890350,9.111005 118.315941,14.083834 99.825668,19.352608 
	C97.974915,19.879978 96.594414,22.057676 94.770767,23.493490 
	C94.545860,23.517525 94.095703,23.472860 93.843719,23.246090 
	C85.294701,19.733530 82.797096,20.457802 79.448158,27.018612 
	C77.783424,27.326376 76.417000,27.436584 75.227142,27.953342 
	C49.439594,39.152882 25.367458,52.960083 5.794375,73.630211 
	C4.478047,75.020317 2.610941,75.888870 1.000000,77.000000 
z"/>
<path fill="#555EEA" opacity="1.000000" stroke="none" 
	d="
M1.000000,77.468658 
	C2.610941,75.888870 4.478047,75.020317 5.794375,73.630211 
	C25.367458,52.960083 49.439594,39.152882 75.227142,27.953342 
	C76.417000,27.436584 77.783424,27.326376 79.406357,27.321823 
	C79.491272,28.379881 79.237457,29.142939 78.716270,30.141207 
	C76.713997,33.946640 74.979088,37.516865 73.244171,41.087090 
	C67.696945,43.631760 61.829468,45.653271 56.661247,48.817066 
	C39.688572,59.207119 23.710995,70.886497 12.130177,87.505264 
	C8.445642,92.792656 5.121097,98.330917 1.315912,103.877190 
	C1.000000,95.312439 1.000000,86.624870 1.000000,77.468658 
z"/>
<path fill="#5660ED" opacity="1.000000" stroke="none" 
	d="
M1.000001,148.468658 
	C2.077826,149.182327 3.605893,150.183197 4.166457,151.574005 
	C13.754538,175.362869 32.123783,191.045593 52.948032,204.387329 
	C57.937855,207.584229 63.425011,210.004883 69.270714,213.088745 
	C71.587257,217.591949 73.316521,221.788956 74.653160,225.978241 
	C72.521263,225.484879 70.671112,225.235306 69.059395,224.478180 
	C45.609417,213.461899 23.933670,199.890244 6.138756,180.715591 
	C4.728593,179.196091 2.726822,178.225632 0.999997,177.000000 
	C1.000000,167.645767 1.000000,158.291550 1.000001,148.468658 
z"/>
<path fill="#525CE3" opacity="1.000000" stroke="none" 
	d="
M379.000000,0.999997 
	C387.020905,1.000000 395.041809,1.000000 403.679199,1.318845 
	C406.212006,2.506979 408.061035,3.593219 410.055176,4.211496 
	C427.217499,9.532583 444.695892,13.985183 461.521912,20.206219 
	C490.087494,30.767666 516.946411,44.625233 539.450806,65.767014 
	C540.971130,67.195297 543.135315,67.938286 545.000000,69.000000 
	C545.000000,72.692909 545.000000,76.385818 544.668457,80.454659 
	C540.487122,76.985909 536.863586,72.877853 532.748169,69.342392 
	C515.419861,54.456100 497.069946,41.353561 475.836639,32.128517 
	C446.358429,19.321348 415.966614,9.978313 384.512939,3.762592 
	C382.569214,3.378487 380.832855,1.945161 379.000000,0.999997 
z"/>
<path fill="#525CE3" opacity="1.000000" stroke="none" 
	d="
M372.468628,256.000000 
	C374.163544,255.000565 376.233826,253.627502 378.505310,253.060287 
	C398.373108,248.099152 418.750824,244.661331 438.036469,238.033844 
	C457.291626,231.416824 475.963654,222.580933 493.940369,212.943924 
	C506.568726,206.174072 517.803284,196.691254 529.249084,187.885544 
	C533.655273,184.495682 536.896179,179.601501 540.727173,175.447281 
	C541.824402,174.257507 543.128601,173.258636 544.668945,172.086121 
	C545.000000,175.692902 545.000000,179.385818 544.656006,183.614838 
	C542.278809,185.530396 539.965271,186.628647 538.255737,188.332733 
	C520.666382,205.866119 499.558990,217.968353 477.176605,228.104248 
	C452.535400,239.263046 426.732941,246.882645 400.494202,253.184097 
	C398.549530,253.651123 396.826233,255.039795 395.000000,256.000000 
	C387.645752,256.000000 380.291504,256.000000 372.468628,256.000000 
z"/>
<path fill="#5660ED" opacity="1.000000" stroke="none" 
	d="
M94.995674,23.469456 
	C96.594414,22.057676 97.974915,19.879978 99.825668,19.352608 
	C118.315941,14.083834 136.890350,9.111005 155.419098,3.975567 
	C157.253876,3.467040 158.943069,2.433328 160.849915,1.321685 
	C182.354233,1.000000 203.708450,1.000000 225.531342,0.999997 
	C223.140900,1.976468 220.341400,3.541696 217.413452,3.838069 
	C189.065292,6.707540 161.099731,11.617421 133.608200,19.121370 
	C127.512871,20.785120 121.482674,22.713396 115.500938,24.750254 
	C113.897583,25.296215 112.583374,26.691341 110.624268,27.975290 
	C105.073303,26.659111 100.034485,25.064283 94.995674,23.469456 
z"/>
<path fill="#555EEA" opacity="1.000000" stroke="none" 
	d="
M378.531372,0.999997 
	C380.832855,1.945161 382.569214,3.378487 384.512939,3.762592 
	C415.966614,9.978313 446.358429,19.321348 475.836639,32.128517 
	C497.069946,41.353561 515.419861,54.456100 532.748169,69.342392 
	C536.863586,72.877853 540.487122,76.985909 544.668457,80.915298 
	C545.000000,84.361290 545.000000,87.722572 545.000000,91.541931 
	C543.608459,90.906265 541.842773,90.070503 540.883179,88.678886 
	C531.096619,74.486359 518.316711,63.417461 504.348389,53.636799 
	C496.349396,48.035854 488.682556,41.288258 479.792816,37.765511 
	C458.365295,29.274426 436.557373,21.508928 414.424072,15.105865 
	C396.108551,9.807262 377.106415,6.884362 358.418518,2.862257 
	C357.674377,2.702095 357.033600,2.061576 356.172333,1.322436 
	C363.354248,1.000000 370.708496,1.000000 378.531372,0.999997 
z"/>
<path fill="#4F58DA" opacity="1.000000" stroke="none" 
	d="
M143.000000,256.000000 
	C136.645599,256.000000 130.291199,256.000000 123.334824,255.673615 
	C121.516380,254.571655 120.395966,253.509384 119.068649,253.064758 
	C105.347900,248.468521 91.449104,244.364517 77.879753,239.363998 
	C51.655445,229.699890 27.073864,216.938599 5.402555,199.004837 
	C4.203286,198.012405 2.479592,197.653687 0.999999,197.000000 
	C1.000000,194.629440 1.000000,192.258896 1.333262,189.529007 
	C4.065901,190.920059 6.644995,192.471588 8.836412,194.452072 
	C27.437353,211.262527 49.340565,222.579376 72.071190,232.489441 
	C73.787392,233.237671 76.045380,232.743240 78.319801,233.076172 
	C80.974197,239.301102 80.974197,239.301102 91.394531,238.816696 
	C93.206543,238.991760 94.609146,239.073715 96.150665,239.464783 
	C97.977158,240.722412 99.559334,242.029663 101.369362,242.561493 
	C113.442574,246.108856 125.582932,249.427963 137.651459,252.990662 
	C139.563782,253.555206 141.223495,254.975403 143.000000,256.000000 
z"/>
<path fill="#4F58DA" opacity="1.000000" stroke="none" 
	d="
M545.000000,68.555840 
	C543.135315,67.938286 540.971130,67.195297 539.450806,65.767014 
	C516.946411,44.625233 490.087494,30.767666 461.521912,20.206219 
	C444.695892,13.985183 427.217499,9.532583 410.055176,4.211496 
	C408.061035,3.593219 406.212006,2.506979 404.147827,1.318845 
	C409.354919,1.000000 414.709869,1.000000 420.676971,1.316254 
	C423.176239,2.574630 424.979889,3.775462 426.964417,4.415453 
	C437.232727,7.726966 447.651672,10.597821 457.825714,14.170140 
	C485.842590,24.007425 512.401062,36.712002 536.043152,54.988010 
	C538.881653,57.182270 542.007385,59.005039 545.000000,60.999996 
	C545.000000,63.370556 545.000000,65.741112 545.000000,68.555840 
z"/>
<path fill="#4D55D4" opacity="1.000000" stroke="none" 
	d="
M130.533142,0.999998 
	C129.601959,2.013303 128.341721,3.555052 126.785286,3.960912 
	C102.137680,10.388117 78.072395,18.481371 55.128204,29.583750 
	C37.753975,37.990894 21.250399,47.874569 6.689025,60.733685 
	C5.237258,62.015736 3.365194,62.821850 1.344098,63.924427 
	C1.000000,61.629444 1.000000,59.258884 1.336477,56.358562 
	C3.495905,54.679790 5.314435,53.523705 7.142526,52.382938 
	C19.135321,44.899181 30.798353,36.807579 43.198967,30.074596 
	C63.913391,18.827581 86.156883,11.192560 108.715881,4.484007 
	C110.957695,3.817342 112.912163,2.184446 115.000000,1.000000 
	C120.022095,1.000000 125.044189,1.000000 130.533142,0.999998 
z"/>
<path fill="#515ADF" opacity="1.000000" stroke="none" 
	d="
M395.466858,256.000000 
	C396.826233,255.039795 398.549530,253.651123 400.494202,253.184097 
	C426.732941,246.882645 452.535400,239.263046 477.176605,228.104248 
	C499.558990,217.968353 520.666382,205.866119 538.255737,188.332733 
	C539.965271,186.628647 542.278809,185.530396 544.656006,184.075470 
	C545.000000,186.041672 545.000000,188.083328 544.666870,190.647614 
	C543.367249,191.800537 542.319092,192.334625 541.446594,193.075562 
	C527.683716,204.763351 512.842834,214.830551 496.787354,223.120193 
	C472.087341,235.873138 446.065735,245.025589 419.221405,252.034775 
	C416.332764,252.789017 413.733490,254.651566 411.000000,256.000000 
	C405.977905,256.000000 400.955811,256.000000 395.466858,256.000000 
z"/>
<path fill="#525CE3" opacity="1.000000" stroke="none" 
	d="
M78.051514,232.826447 
	C76.045380,232.743240 73.787392,233.237671 72.071190,232.489441 
	C49.340565,222.579376 27.437353,211.262527 8.836412,194.452072 
	C6.644995,192.471588 4.065901,190.920059 1.333262,189.084839 
	C1.000000,185.307098 1.000000,181.614182 0.999997,177.460648 
	C2.726822,178.225632 4.728593,179.196091 6.138756,180.715591 
	C23.933670,199.890244 45.609417,213.461899 69.059395,224.478180 
	C70.671112,225.235306 72.521263,225.484879 74.890617,226.233429 
	C76.364311,228.606384 77.207909,230.716415 78.051514,232.826447 
z"/>
<path fill="#5660ED" opacity="1.000000" stroke="none" 
	d="
M144.995621,239.166718 
	C146.497116,240.072906 147.902435,241.513916 149.514740,241.803864 
	C168.955673,245.300156 188.430817,248.605591 207.888596,252.009201 
	C213.829727,253.048416 219.744995,254.235519 225.836060,255.677444 
	C208.645767,256.000000 191.291550,256.000000 173.317566,255.678314 
	C170.939102,254.567001 169.252625,253.470383 167.410126,253.036896 
	C154.164810,249.920563 140.848297,247.097610 127.646240,243.812439 
	C123.940575,242.890320 120.541832,240.734756 117.330017,239.073166 
	C118.100113,238.935654 118.542519,238.869934 119.449875,238.868805 
	C125.606102,238.898438 131.297363,238.863480 137.429901,238.890259 
	C140.245972,239.023590 142.620804,239.095154 144.995621,239.166718 
z"/>
<path fill="#4A53CE" opacity="1.000000" stroke="none" 
	d="
M114.533142,1.000000 
	C112.912163,2.184446 110.957695,3.817342 108.715881,4.484007 
	C86.156883,11.192560 63.913391,18.827581 43.198967,30.074596 
	C30.798353,36.807579 19.135321,44.899181 7.142526,52.382938 
	C5.314435,53.523705 3.495905,54.679790 1.336477,55.914398 
	C1.000000,53.629444 1.000000,51.258884 1.367767,48.415119 
	C3.384827,47.213463 5.133747,46.650829 6.667158,45.729511 
	C16.216627,39.991901 25.263760,33.175030 35.332928,28.597988 
	C54.236290,20.005272 73.736832,12.729732 92.942833,4.794623 
	C95.113884,3.897637 96.988129,2.282254 99.000000,1.000000 
	C104.022095,1.000000 109.044182,1.000000 114.533142,1.000000 
z"/>
<path fill="#474FC3" opacity="1.000000" stroke="none" 
	d="
M98.533142,1.000000 
	C96.988129,2.282254 95.113884,3.897637 92.942833,4.794623 
	C73.736832,12.729732 54.236290,20.005272 35.332928,28.597988 
	C25.263760,33.175030 16.216627,39.991901 6.667158,45.729511 
	C5.133747,46.650829 3.384827,47.213463 1.367767,47.970955 
	C1.000000,45.958332 1.000000,43.916668 1.347365,41.361355 
	C2.464207,40.542294 3.308602,40.353561 3.992321,39.914574 
	C27.591282,24.762604 52.925468,13.268107 79.323647,3.976076 
	C80.724693,3.482913 81.782440,2.014437 83.000000,1.000000 
	C88.022095,1.000000 93.044182,1.000000 98.533142,1.000000 
z"/>
<path fill="#4D55D4" opacity="1.000000" stroke="none" 
	d="
M0.999999,197.428467 
	C2.479592,197.653687 4.203286,198.012405 5.402555,199.004837 
	C27.073864,216.938599 51.655445,229.699890 77.879753,239.363998 
	C91.449104,244.364517 105.347900,248.468521 119.068649,253.064758 
	C120.395966,253.509384 121.516380,254.571655 122.866425,255.673615 
	C118.975456,256.000000 114.950912,256.000000 110.332489,255.675690 
	C108.227509,254.430679 106.822060,253.198669 105.186836,252.643600 
	C98.427635,250.349243 91.533783,248.443710 84.807053,246.062897 
	C57.619797,236.440414 31.558254,224.576660 8.270252,207.234909 
	C6.035103,205.570450 3.432191,204.399857 1.000000,203.000000 
	C1.000000,201.285645 1.000000,199.571289 0.999999,197.428467 
z"/>
<path fill="#4F58DA" opacity="1.000000" stroke="none" 
	d="
M411.460632,256.000000 
	C413.733490,254.651566 416.332764,252.789017 419.221405,252.034775 
	C446.065735,245.025589 472.087341,235.873138 496.787354,223.120193 
	C512.842834,214.830551 527.683716,204.763351 541.446594,193.075562 
	C542.319092,192.334625 543.367249,191.800537 544.666870,191.085114 
	C545.000000,192.714355 545.000000,194.428711 544.663574,196.656494 
	C538.410400,201.428406 532.607239,205.856125 526.557617,209.916656 
	C497.121521,229.674332 464.629761,242.514816 430.710724,252.139740 
	C427.994080,252.910614 425.563507,254.689529 423.000000,256.000000 
	C419.307098,256.000000 415.614166,256.000000 411.460632,256.000000 
z"/>
<path fill="#3F46AD" opacity="1.000000" stroke="none" 
	d="
M0.999998,230.000000 
	C1.000000,227.299988 1.000000,224.599976 1.346908,221.527710 
	C2.164225,221.314285 2.686016,221.389832 3.097667,221.643875 
	C23.613213,234.303925 45.332748,244.426315 67.973267,252.652161 
	C69.517166,253.213089 70.666931,254.858795 72.000000,256.000000 
	C66.311958,256.000000 60.623920,256.000000 54.340271,255.679169 
	C52.242115,254.414993 50.821190,253.295242 49.224075,252.556274 
	C36.718117,246.769852 24.165985,241.083267 11.656827,235.303680 
	C8.056340,233.640137 4.549675,231.773529 0.999998,230.000000 
z"/>
<path fill="#4D55D4" opacity="1.000000" stroke="none" 
	d="
M545.000000,60.571533 
	C542.007385,59.005039 538.881653,57.182270 536.043152,54.988010 
	C512.401062,36.712002 485.842590,24.007425 457.825714,14.170140 
	C447.651672,10.597821 437.232727,7.726966 426.964417,4.415453 
	C424.979889,3.775462 423.176239,2.574630 421.144592,1.316254 
	C424.361298,1.000000 427.722565,1.000000 431.686584,1.316199 
	C434.020569,2.525410 435.670807,3.661677 437.496918,4.270029 
	C446.170990,7.159686 454.944733,9.755180 463.588287,12.730466 
	C490.477325,21.986208 515.626770,34.618931 538.520630,51.610294 
	C540.453979,53.045219 542.829773,53.884174 545.000000,55.000000 
	C545.000000,56.714359 545.000000,58.428715 545.000000,60.571533 
z"/>
<path fill="#434BB9" opacity="1.000000" stroke="none" 
	d="
M82.533882,1.000000 
	C81.782440,2.014437 80.724693,3.482913 79.323647,3.976076 
	C52.925468,13.268107 27.591282,24.762604 3.992321,39.914574 
	C3.308602,40.353561 2.464207,40.542294 1.347365,40.923855 
	C1.000000,38.958332 1.000000,36.916668 1.347443,34.361610 
	C2.011173,33.750381 2.365256,33.713970 2.638353,33.545933 
	C22.312880,21.440325 43.182247,11.847194 64.808449,3.814495 
	C66.049538,3.353514 66.944145,1.959683 68.000000,1.000000 
	C72.689255,1.000000 77.378510,1.000000 82.533882,1.000000 
z"/>
<path fill="#434BB9" opacity="1.000000" stroke="none" 
	d="
M463.000000,1.000012 
	C467.689240,1.000000 472.378510,1.000000 477.662506,1.322152 
	C479.447113,2.464086 480.547119,3.479200 481.840393,4.074105 
	C498.668854,11.815016 515.551208,19.439159 532.355469,27.231922 
	C536.685364,29.239861 540.791199,31.730885 545.000000,34.000000 
	C545.000000,36.041668 545.000000,38.083332 544.653564,40.486656 
	C543.392456,40.461197 542.394592,40.201794 541.575134,39.668385 
	C518.333191,24.539642 493.347778,13.086232 467.152252,4.134170 
	C465.593201,3.601391 464.376160,2.067864 463.000000,1.000012 
z"/>
<path fill="#4A53CE" opacity="1.000000" stroke="none" 
	d="
M1.000000,203.428467 
	C3.432191,204.399857 6.035103,205.570450 8.270252,207.234909 
	C31.558254,224.576660 57.619797,236.440414 84.807053,246.062897 
	C91.533783,248.443710 98.427635,250.349243 105.186836,252.643600 
	C106.822060,253.198669 108.227509,254.430679 109.869308,255.675690 
	C106.307091,256.000000 102.614182,256.000000 98.331314,255.677612 
	C95.604744,254.218018 93.581963,252.726624 91.314110,251.997681 
	C65.155403,243.589783 40.053947,232.874542 16.661610,218.335297 
	C11.500710,215.127579 6.223596,212.106842 0.999999,209.000000 
	C1.000000,207.285645 1.000000,205.571289 1.000000,203.428467 
z"/>
<path fill="#474FC3" opacity="1.000000" stroke="none" 
	d="
M0.999999,209.428467 
	C6.223596,212.106842 11.500710,215.127579 16.661610,218.335297 
	C40.053947,232.874542 65.155403,243.589783 91.314110,251.997681 
	C93.581963,252.726624 95.604744,254.218018 97.870682,255.677612 
	C93.975456,256.000000 89.950912,256.000000 85.333595,255.678375 
	C83.069939,254.373962 81.504272,253.099579 79.712097,252.452896 
	C58.532806,244.810242 37.923195,235.928635 18.358950,224.715622 
	C12.606204,221.418503 6.788130,218.235382 0.999998,215.000000 
	C1.000000,213.285645 1.000000,211.571289 0.999999,209.428467 
z"/>
<path fill="#4D55D4" opacity="1.000000" stroke="none" 
	d="
M423.458069,256.000000 
	C425.563507,254.689529 427.994080,252.910614 430.710724,252.139740 
	C464.629761,242.514816 497.121521,229.674332 526.557617,209.916656 
	C532.607239,205.856125 538.410400,201.428406 544.663574,197.084961 
	C545.000000,198.388885 545.000000,199.777786 544.663452,201.668640 
	C542.762268,203.106934 541.186218,204.024673 539.634888,204.982529 
	C526.344727,213.188538 513.702209,222.801132 499.616943,229.275803 
	C479.869720,238.353134 459.038849,245.068329 438.709015,252.891373 
	C436.994476,253.551132 435.562988,254.946396 434.000000,256.000000 
	C430.638702,256.000000 427.277435,256.000000 423.458069,256.000000 
z"/>
<path fill="#4A53CE" opacity="1.000000" stroke="none" 
	d="
M545.000000,54.583336 
	C542.829773,53.884174 540.453979,53.045219 538.520630,51.610294 
	C515.626770,34.618931 490.477325,21.986208 463.588287,12.730466 
	C454.944733,9.755180 446.170990,7.159686 437.496918,4.270029 
	C435.670807,3.661677 434.020569,2.525410 432.144653,1.316199 
	C435.692902,1.000000 439.385834,1.000000 443.669373,1.322675 
	C445.924713,2.625219 447.486511,3.892118 449.272888,4.532744 
	C455.358093,6.715066 461.587982,8.500650 467.644684,10.754640 
	C487.878571,18.284695 507.796021,26.496391 526.021790,38.312901 
	C532.253906,42.353470 538.668701,46.112400 545.000000,50.000000 
	C545.000000,51.388889 545.000000,52.777779 545.000000,54.583336 
z"/>
<path fill="#525CE3" opacity="1.000000" stroke="none" 
	d="
M117.002312,239.144958 
	C120.541832,240.734756 123.940575,242.890320 127.646240,243.812439 
	C140.848297,247.097610 154.164810,249.920563 167.410126,253.036896 
	C169.252625,253.470383 170.939102,254.567001 172.848907,255.678314 
	C163.312439,256.000000 153.624878,256.000000 143.468658,256.000000 
	C141.223495,254.975403 139.563782,253.555206 137.651459,252.990662 
	C125.582932,249.427963 113.442574,246.108856 101.369362,242.561493 
	C99.559334,242.029663 97.977158,240.722412 96.613785,239.400574 
	C103.626099,239.066498 110.314201,239.105728 117.002312,239.144958 
z"/>
<path fill="#434BB9" opacity="1.000000" stroke="none" 
	d="
M0.999998,215.428467 
	C6.788130,218.235382 12.606204,221.418503 18.358950,224.715622 
	C37.923195,235.928635 58.532806,244.810242 79.712097,252.452896 
	C81.504272,253.099579 83.069939,254.373962 84.870407,255.678375 
	C80.975456,256.000000 76.950912,256.000000 72.463181,256.000000 
	C70.666931,254.858795 69.517166,253.213089 67.973267,252.652161 
	C45.332748,244.426315 23.613213,234.303925 3.097667,221.643875 
	C2.686016,221.389832 2.164225,221.314285 1.346908,221.077728 
	C1.000000,219.285645 1.000000,217.571289 0.999998,215.428467 
z"/>
<path fill="#434BB9" opacity="1.000000" stroke="none" 
	d="
M545.000000,216.000000 
	C545.000000,218.041672 545.000000,220.083328 544.628052,222.592285 
	C542.269287,223.865814 540.138672,224.430801 538.317749,225.515579 
	C520.110657,236.362122 500.876038,245.001251 481.104248,252.534592 
	C479.234192,253.247101 477.693573,254.824280 476.000000,256.000000 
	C471.974487,256.000000 467.949005,256.000000 463.590759,255.678024 
	C464.766144,254.428528 466.167847,253.205734 467.798431,252.617859 
	C491.908142,243.925629 515.334106,233.806198 537.069031,220.055923 
	C539.567871,218.475052 542.349487,217.341125 545.000000,216.000000 
z"/>
<path fill="#3F46AD" opacity="1.000000" stroke="none" 
	d="
M476.466125,256.000000 
	C477.693573,254.824280 479.234192,253.247101 481.104248,252.534592 
	C500.876038,245.001251 520.110657,236.362122 538.317749,225.515579 
	C540.138672,224.430801 542.269287,223.865814 544.628052,223.029785 
	C545.000000,225.041672 545.000000,227.083328 544.627258,229.592453 
	C542.700317,230.608582 541.086121,231.029419 539.601135,231.725739 
	C524.447998,238.831421 509.303284,245.955643 494.201172,253.168732 
	C492.965302,253.759003 492.059296,255.039978 491.000000,256.000000 
	C486.310760,256.000000 481.621490,256.000000 476.466125,256.000000 
z"/>
<path fill="#4A53CE" opacity="1.000000" stroke="none" 
	d="
M434.454102,256.000000 
	C435.562988,254.946396 436.994476,253.551132 438.709015,252.891373 
	C459.038849,245.068329 479.869720,238.353134 499.616943,229.275803 
	C513.702209,222.801132 526.344727,213.188538 539.634888,204.982529 
	C541.186218,204.024673 542.762268,203.106934 544.663452,202.085297 
	C545.000000,203.388885 545.000000,204.777786 544.654907,206.659027 
	C543.126160,207.731110 541.826172,208.150681 540.775940,208.913940 
	C512.787598,229.254669 481.359283,242.362289 448.690094,252.908783 
	C446.973022,253.463104 445.556458,254.948212 444.000000,256.000000 
	C440.969391,256.000000 437.938812,256.000000 434.454102,256.000000 
z"/>
<path fill="#4850C7" opacity="1.000000" stroke="none" 
	d="
M545.000000,49.583336 
	C538.668701,46.112400 532.253906,42.353470 526.021790,38.312901 
	C507.796021,26.496391 487.878571,18.284695 467.644684,10.754640 
	C461.587982,8.500650 455.358093,6.715066 449.272888,4.532744 
	C447.486511,3.892118 445.924713,2.625219 444.130005,1.322675 
	C447.030609,1.000000 450.061188,1.000000 453.675476,1.322244 
	C456.398560,2.782661 458.425385,4.266443 460.694702,5.005675 
	C483.985229,12.592602 506.420868,22.063927 527.448486,34.728256 
	C533.254944,38.225300 539.147156,41.579990 545.000000,44.999992 
	C545.000000,46.388889 545.000000,47.777779 545.000000,49.583336 
z"/>
<path fill="#3F46AD" opacity="1.000000" stroke="none" 
	d="
M67.535355,1.000000 
	C66.944145,1.959683 66.049538,3.353514 64.808449,3.814495 
	C43.182247,11.847194 22.312880,21.440325 2.638353,33.545933 
	C2.365256,33.713970 2.011173,33.750381 1.347443,33.924110 
	C1.000000,31.958334 1.000000,29.916666 1.351697,27.360353 
	C18.383554,19.066338 35.072823,11.306276 51.719868,3.456677 
	C52.657558,3.014527 53.247959,1.835866 54.000000,1.000000 
	C58.356899,1.000000 62.713802,1.000000 67.535355,1.000000 
z"/>
<path fill="#474FC3" opacity="1.000000" stroke="none" 
	d="
M545.000000,215.583328 
	C542.349487,217.341125 539.567871,218.475052 537.069031,220.055923 
	C515.334106,233.806198 491.908142,243.925629 467.798431,252.617859 
	C466.167847,253.205734 464.766144,254.428528 463.128998,255.678024 
	C459.969391,256.000000 456.938812,256.000000 453.583801,255.677826 
	C455.394867,254.218842 457.419525,252.748642 459.682861,251.996658 
	C482.877838,244.290070 505.264679,234.789047 526.325684,222.310150 
	C532.586304,218.600647 538.777161,214.773346 545.000000,211.000015 
	C545.000000,212.388885 545.000000,213.777786 545.000000,215.583328 
z"/>
<path fill="#4850C7" opacity="1.000000" stroke="none" 
	d="
M545.000000,210.600021 
	C538.777161,214.773346 532.586304,218.600647 526.325684,222.310150 
	C505.264679,234.789047 482.877838,244.290070 459.682861,251.996658 
	C457.419525,252.748642 455.394867,254.218842 453.129700,255.677826 
	C450.299988,256.000000 447.599976,256.000000 444.449982,256.000000 
	C445.556458,254.948212 446.973022,253.463104 448.690094,252.908783 
	C481.359283,242.362289 512.787598,229.254669 540.775940,208.913940 
	C541.826172,208.150681 543.126160,207.731110 544.654907,207.075684 
	C545.000000,208.066666 545.000000,209.133347 545.000000,210.600021 
z"/>
<path fill="#474FC3" opacity="1.000000" stroke="none" 
	d="
M545.000000,44.599998 
	C539.147156,41.579990 533.254944,38.225300 527.448486,34.728256 
	C506.420868,22.063927 483.985229,12.592602 460.694702,5.005675 
	C458.425385,4.266443 456.398560,2.782661 454.129578,1.322244 
	C456.700012,1.000000 459.400024,1.000000 462.549988,1.000012 
	C464.376160,2.067864 465.593201,3.601391 467.152252,4.134170 
	C493.347778,13.086232 518.333191,24.539642 541.575134,39.668385 
	C542.394592,40.201794 543.392456,40.461197 544.653564,40.924156 
	C545.000000,42.066669 545.000000,43.133339 545.000000,44.599998 
z"/>
<path fill="#363C95" opacity="1.000000" stroke="none" 
	d="
M499.000000,0.999995 
	C503.689240,1.000000 508.378510,1.000000 513.657837,1.315847 
	C524.498596,6.754467 534.749268,11.877238 545.000000,17.000004 
	C545.000000,19.041666 545.000000,21.083334 544.648865,23.482141 
	C532.506836,18.217104 520.679382,12.669566 508.947601,6.926582 
	C505.492615,5.235280 502.308350,2.990904 499.000000,0.999995 
z"/>
<path fill="#3A41A1" opacity="1.000000" stroke="none" 
	d="
M498.539368,0.999995 
	C502.308350,2.990904 505.492615,5.235280 508.947601,6.926582 
	C520.679382,12.669566 532.506836,18.217104 544.648865,23.919641 
	C545.000000,25.714357 545.000000,27.428717 544.660767,29.482206 
	C526.549561,21.355270 508.762970,12.919397 491.031311,4.369655 
	C489.501587,3.632068 488.335175,2.141025 487.000000,0.999990 
	C490.692902,1.000000 494.385834,1.000000 498.539368,0.999995 
z"/>
<path fill="#3A41A1" opacity="1.000000" stroke="none" 
	d="
M491.463196,256.000000 
	C492.059296,255.039978 492.965302,253.759003 494.201172,253.168732 
	C509.303284,245.955643 524.447998,238.831421 539.601135,231.725739 
	C541.086121,231.029419 542.700317,230.608582 544.627258,230.029953 
	C545.000000,231.714355 545.000000,233.428711 544.626587,235.601730 
	C542.546631,236.685104 540.779907,237.182312 539.143616,237.955490 
	C529.529236,242.498459 519.913574,247.041428 510.374207,251.738434 
	C508.101105,252.857651 506.117035,254.563812 504.000000,256.000000 
	C499.975464,256.000000 495.950897,256.000000 491.463196,256.000000 
z"/>
<path fill="#3A41A1" opacity="1.000000" stroke="none" 
	d="
M53.539364,1.000000 
	C53.247959,1.835866 52.657558,3.014527 51.719868,3.456677 
	C35.072823,11.306276 18.383554,19.066338 1.351697,26.922853 
	C1.000000,25.285643 1.000000,23.571283 1.369825,21.399044 
	C2.542592,20.738770 3.404373,20.661390 4.139682,20.315304 
	C15.861718,14.798110 27.582241,9.276972 39.252972,3.652700 
	C40.341881,3.127940 41.092377,1.900943 42.000000,1.000000 
	C45.692909,1.000000 49.385818,1.000000 53.539364,1.000000 
z"/>
<path fill="#3A41A1" opacity="1.000000" stroke="none" 
	d="
M0.999998,230.428467 
	C4.549675,231.773529 8.056340,233.640137 11.656827,235.303680 
	C24.165985,241.083267 36.718117,246.769852 49.224075,252.556274 
	C50.821190,253.295242 52.242115,254.414993 53.872330,255.679169 
	C50.307091,256.000000 46.614182,256.000000 42.335472,255.680939 
	C40.436527,254.403915 39.234192,253.213760 37.792267,252.525650 
	C28.333303,248.011642 18.842442,243.562790 9.316123,239.192673 
	C6.622697,237.957077 3.776262,237.055023 0.999999,236.000000 
	C1.000000,234.285645 1.000000,232.571289 0.999998,230.428467 
z"/>
<path fill="#3F46AD" opacity="1.000000" stroke="none" 
	d="
M486.550049,0.999990 
	C488.335175,2.141025 489.501587,3.632068 491.031311,4.369655 
	C508.762970,12.919397 526.549561,21.355270 544.660767,29.910669 
	C545.000000,31.066669 545.000000,32.133339 545.000000,33.600002 
	C540.791199,31.730885 536.685364,29.239861 532.355469,27.231922 
	C515.551208,19.439159 498.668854,11.815016 481.840393,4.074105 
	C480.547119,3.479200 479.447113,2.464086 478.128632,1.322152 
	C480.700012,1.000000 483.400024,1.000000 486.550049,0.999990 
z"/>
<path fill="#363C95" opacity="1.000000" stroke="none" 
	d="
M0.999999,236.416656 
	C3.776262,237.055023 6.622697,237.957077 9.316123,239.192673 
	C18.842442,243.562790 28.333303,248.011642 37.792267,252.525650 
	C39.234192,253.213760 40.436527,254.403915 41.874840,255.680939 
	C38.307091,256.000000 34.614182,256.000000 30.335527,255.681000 
	C20.166521,250.574677 10.583261,245.787338 1.000000,241.000000 
	C1.000000,239.611115 1.000000,238.222214 0.999999,236.416656 
z"/>
<path fill="#363C95" opacity="1.000000" stroke="none" 
	d="
M504.460632,256.000000 
	C506.117035,254.563812 508.101105,252.857651 510.374207,251.738434 
	C519.913574,247.041428 529.529236,242.498459 539.143616,237.955490 
	C540.779907,237.182312 542.546631,236.685104 544.626587,236.030197 
	C545.000000,237.388885 545.000000,238.777786 544.648193,240.661407 
	C535.747314,245.172333 527.176514,249.143707 518.676208,253.260559 
	C517.595398,253.784012 516.883057,255.068222 516.000000,256.000000 
	C512.307068,256.000000 508.614166,256.000000 504.460632,256.000000 
z"/>
<path fill="#363C95" opacity="1.000000" stroke="none" 
	d="
M41.539364,1.000000 
	C41.092377,1.900943 40.341881,3.127940 39.252972,3.652700 
	C27.582241,9.276972 15.861718,14.798110 4.139682,20.315304 
	C3.404373,20.661390 2.542592,20.738770 1.369825,20.970581 
	C1.000000,19.611111 1.000000,18.222221 1.351818,16.338602 
	C10.107455,11.907030 18.536789,8.022830 26.887140,3.975668 
	C28.116674,3.379750 28.971699,2.011116 30.000000,1.000000 
	C33.692909,1.000000 37.385818,1.000000 41.539364,1.000000 
z"/>
<path fill="#32388A" opacity="1.000000" stroke="none" 
	d="
M545.000000,16.562504 
	C534.749268,11.877238 524.498596,6.754467 514.123901,1.315847 
	C518.689270,1.000000 523.378479,1.000000 528.626831,1.332749 
	C534.457275,4.443662 539.728638,7.221827 545.000000,9.999996 
	C545.000000,12.041667 545.000000,14.083333 545.000000,16.562504 
z"/>
<path fill="#32388A" opacity="1.000000" stroke="none" 
	d="
M29.536816,1.000000 
	C28.971699,2.011116 28.116674,3.379750 26.887140,3.975668 
	C18.536789,8.022830 10.107455,11.907030 1.351818,15.921936 
	C1.000000,14.285642 1.000000,12.571282 1.354177,10.349385 
	C4.886701,8.516390 8.202557,7.439391 11.197201,5.782010 
	C13.353255,4.588746 15.081132,2.621826 17.000000,1.000000 
	C21.024544,1.000000 25.049089,1.000000 29.536816,1.000000 
z"/>
<path fill="#32388A" opacity="1.000000" stroke="none" 
	d="
M1.000000,241.428467 
	C10.583261,245.787338 20.166521,250.574677 29.874891,255.681000 
	C25.975456,256.000000 21.950911,256.000000 17.370247,255.667236 
	C11.542751,252.556320 6.271374,249.778168 0.999999,247.000000 
	C1.000000,245.285645 1.000000,243.571289 1.000000,241.428467 
z"/>
<path fill="#32388A" opacity="1.000000" stroke="none" 
	d="
M516.463196,256.000000 
	C516.883057,255.068222 517.595398,253.784012 518.676208,253.260559 
	C527.176514,249.143707 535.747314,245.172333 544.648193,241.078064 
	C545.000000,242.714355 545.000000,244.428711 544.645813,246.650604 
	C541.113281,248.483597 537.797424,249.560593 534.802795,251.218002 
	C532.646790,252.411270 530.918884,254.378189 529.000000,256.000000 
	C524.975464,256.000000 520.950928,256.000000 516.463196,256.000000 
z"/>
<path fill="#2D327D" opacity="1.000000" stroke="none" 
	d="
M0.999999,247.491058 
	C6.271374,249.778168 11.542751,252.556320 16.907064,255.667236 
	C11.771614,256.000000 6.543228,256.000000 1.000000,256.000000 
	C1.000000,253.335175 1.000000,250.658630 0.999999,247.491058 
z"/>
<path fill="#2D327D" opacity="1.000000" stroke="none" 
	d="
M529.471191,256.000000 
	C530.918884,254.378189 532.646790,252.411270 534.802795,251.218002 
	C537.797424,249.560593 541.113281,248.483597 544.645813,247.079071 
	C545.000000,249.945831 545.000000,252.891663 545.000000,256.000000 
	C539.981567,256.000000 534.961975,256.000000 529.471191,256.000000 
z"/>
<path fill="#2D327D" opacity="1.000000" stroke="none" 
	d="
M545.000000,9.508947 
	C539.728638,7.221827 534.457275,4.443662 529.092957,1.332749 
	C534.228394,1.000000 539.456787,1.000000 545.000000,1.000000 
	C545.000000,3.664835 545.000000,6.341369 545.000000,9.508947 
z"/>
<path fill="#2D327D" opacity="1.000000" stroke="none" 
	d="
M16.528801,1.000000 
	C15.081132,2.621826 13.353255,4.588746 11.197201,5.782010 
	C8.202557,7.439391 4.886701,8.516390 1.354177,9.920923 
	C1.000000,7.054171 1.000000,4.108342 1.000000,1.000000 
	C6.018441,1.000000 11.038022,1.000000 16.528801,1.000000 
z"/>
<path fill="#5C65F6" opacity="1.000000" stroke="none" 
	d="
M455.000092,34.005722 
	C456.800262,34.141479 458.839691,33.773922 460.360626,34.497021 
	C468.483490,38.358875 476.476776,42.493252 484.759094,46.768822 
	C486.312042,49.477306 487.202209,52.328625 489.020813,54.340862 
	C492.316132,57.987022 493.316376,62.010059 493.045990,66.732224 
	C492.870239,69.801628 492.121613,71.704369 488.613678,72.152916 
	C487.287567,72.322495 486.100677,74.104019 484.994080,75.285439 
	C484.240570,76.089890 483.727753,77.122414 483.122986,78.063057 
	C481.872559,80.008049 480.632599,81.959763 479.388306,83.908691 
	C481.198547,84.717621 483.008850,85.526558 485.835876,86.789841 
	C484.607819,88.891045 483.519684,91.353180 481.904083,93.398727 
	C477.905975,98.460823 476.470612,103.876297 476.652496,110.472748 
	C476.807465,116.091835 474.944336,121.862778 473.415039,127.412529 
	C469.980133,139.877747 466.220459,152.253967 462.529480,164.647491 
	C462.060028,166.223770 461.240356,167.700928 460.531708,169.199783 
	C458.646118,173.188080 457.861603,176.974335 461.280792,180.752228 
	C462.007568,181.555222 462.032440,183.944870 461.368317,184.898453 
	C457.499207,190.453812 455.003754,196.087402 455.654022,203.258560 
	C456.093445,208.104889 454.940216,212.932571 449.744019,216.042068 
	C440.055328,221.840012 430.707764,228.210587 421.260559,234.407303 
	C419.485870,235.571381 417.908447,237.036179 416.120300,238.675735 
	C412.969910,238.992111 409.939178,238.994965 406.575684,238.683044 
	C408.513214,236.735535 410.953094,235.291611 413.021545,233.434097 
	C418.863373,228.188049 426.626831,224.588547 429.156372,216.385117 
	C431.127533,209.992401 432.406616,203.387100 434.016815,196.882111 
	C438.480316,178.849503 442.928558,160.813034 447.441101,142.792679 
	C449.158508,135.934570 451.241394,129.162491 452.783600,122.267517 
	C454.511200,114.543404 455.673218,106.692749 457.402527,98.969078 
	C457.836304,97.031822 459.510712,95.376488 460.594391,93.579193 
	C461.337158,92.347321 462.940460,90.759102 462.621246,89.904877 
	C460.624512,84.561760 462.391754,80.103119 464.748596,75.383965 
	C467.142151,70.591347 468.783295,65.422951 470.844513,60.189205 
	C473.390442,61.235847 475.119568,61.946690 477.956909,63.113121 
	C476.949677,58.732933 476.172241,55.352139 475.394806,51.971348 
	C475.031219,52.230373 474.667633,52.489403 474.304047,52.748432 
	C472.511780,50.942989 470.752625,49.103134 468.919434,47.340275 
	C466.262085,44.784866 463.535370,42.301689 460.868439,39.756096 
	C458.887512,37.865295 456.954468,35.924328 455.000092,34.005722 
z"/>
<path fill="#757CF6" opacity="1.000000" stroke="none" 
	d="
M315.989258,238.956772 
	C308.965973,238.960678 301.942627,238.964569 294.467987,238.547119 
	C297.399384,223.744537 300.709595,209.345749 304.189331,194.988068 
	C306.656525,184.808319 309.382874,174.691650 311.939697,164.533279 
	C315.708405,149.559875 319.399506,134.566910 323.179932,119.596481 
	C326.145294,107.853729 329.128143,96.114525 332.234924,84.408707 
	C333.995728,77.774437 334.612244,70.787323 340.442291,65.639641 
	C342.589203,63.744011 343.641602,59.776554 343.837250,56.668720 
	C344.309784,49.162285 343.983337,41.605560 343.979004,34.069107 
	C351.667358,34.056324 359.355713,34.043541 367.437805,34.395432 
	C367.673340,37.435589 366.466370,40.664307 367.536011,42.692059 
	C372.516968,52.134350 371.975586,56.761883 363.754303,63.446220 
	C360.036682,66.468834 357.839386,70.045082 357.936829,74.975197 
	C357.968750,76.590446 357.489471,78.251297 357.043060,79.834648 
	C354.477539,88.934158 351.568329,97.946564 349.299561,107.118111 
	C342.563782,134.347916 336.227783,161.677032 329.427582,188.890366 
	C325.239136,205.651871 320.487854,222.272751 315.989258,238.956772 
z"/>
<path fill="#636CF6" opacity="1.000000" stroke="none" 
	d="
M384.996338,238.992050 
	C379.641205,238.992844 374.286041,238.993652 368.468414,238.562515 
	C369.632477,230.401184 371.212982,222.661758 372.898773,214.945328 
	C374.522949,207.511185 376.127350,200.068634 377.973846,192.688171 
	C380.226746,183.683289 382.846924,174.770126 385.089020,165.762726 
	C389.968781,146.158463 394.644684,126.503395 399.537964,106.902565 
	C401.586334,98.697495 403.481567,90.397232 406.372223,82.478165 
	C408.522461,76.587502 407.605103,69.165245 414.568359,65.255333 
	C416.702362,64.057076 417.659882,61.302967 415.463196,58.293633 
	C414.599731,57.110802 415.183105,53.735485 416.330078,52.445744 
	C419.173737,49.248104 419.318878,46.123035 418.209259,42.306278 
	C417.436584,39.648457 417.374573,36.784050 416.995117,34.011925 
	C422.683716,34.009720 428.372314,34.007511 434.566284,34.410645 
	C436.179932,39.034843 434.811249,44.728306 441.682678,45.529369 
	C442.391418,45.611988 443.093262,47.308792 443.475708,48.372578 
	C445.387482,53.689632 442.636169,60.030262 437.929596,63.388172 
	C434.660980,65.720177 430.926300,68.501953 429.432190,71.960709 
	C427.168579,77.200806 426.808868,83.238510 425.397644,88.876602 
	C421.975891,102.547234 418.401459,116.179588 414.913361,129.833710 
	C412.797363,138.116531 410.868927,146.450180 408.593903,154.688568 
	C406.653870,161.713791 403.999786,168.552002 402.260010,175.620255 
	C398.497925,190.904709 395.342834,206.340271 391.472412,221.595535 
	C389.959595,227.558243 387.192291,233.202667 384.996338,238.992050 
z"/>
<path fill="#7D83F6" opacity="1.000000" stroke="none" 
	d="
M343.512817,34.052746 
	C343.983337,41.605560 344.309784,49.162285 343.837250,56.668720 
	C343.641602,59.776554 342.589203,63.744011 340.442291,65.639641 
	C334.612244,70.787323 333.995728,77.774437 332.234924,84.408707 
	C329.128143,96.114525 326.145294,107.853729 323.179932,119.596481 
	C319.399506,134.566910 315.708405,149.559875 311.939697,164.533279 
	C309.382874,174.691650 306.656525,184.808319 304.189331,194.988068 
	C300.709595,209.345749 297.399384,223.744537 293.998474,238.529129 
	C287.295441,238.941116 280.610596,238.949707 273.545166,238.564301 
	C277.306061,221.380554 281.388123,204.575851 285.603088,187.804550 
	C291.721191,163.460770 297.976501,139.151459 304.091827,114.806976 
	C307.370697,101.754089 310.256836,88.597321 313.820129,75.624771 
	C314.715027,72.366920 317.670502,69.715843 319.440674,66.648369 
	C322.318634,61.661156 325.086456,56.603973 327.673004,51.461739 
	C328.068878,50.674683 327.626709,48.791569 326.923340,48.234364 
	C321.929749,44.278580 323.144257,39.172802 323.977875,34.092010 
	C330.334137,34.073467 336.690399,34.054924 343.512817,34.052746 
z"/>
<path fill="#6E76F6" opacity="1.000000" stroke="none" 
	d="
M316.458618,238.971222 
	C320.487854,222.272751 325.239136,205.651871 329.427582,188.890366 
	C336.227783,161.677032 342.563782,134.347916 349.299561,107.118111 
	C351.568329,97.946564 354.477539,88.934158 357.043060,79.834648 
	C357.489471,78.251297 357.968750,76.590446 357.936829,74.975197 
	C357.839386,70.045082 360.036682,66.468834 363.754303,63.446220 
	C371.975586,56.761883 372.516968,52.134350 367.536011,42.692059 
	C366.466370,40.664307 367.673340,37.435589 367.905029,34.402870 
	C374.004211,34.036552 380.029907,34.027470 386.491943,34.388474 
	C386.827271,37.751797 386.847260,40.755501 386.589630,43.735191 
	C386.353485,46.466438 385.787231,49.167709 385.423981,51.889870 
	C385.153076,53.919926 384.197235,56.307613 384.917145,57.926476 
	C386.373596,61.201630 384.990234,62.996155 383.224487,65.472206 
	C381.009460,68.578339 379.191559,72.147064 378.028564,75.780609 
	C376.422577,80.798264 375.776489,86.114143 374.388763,91.212334 
	C369.721100,108.360405 364.669067,125.406876 360.205780,142.606842 
	C353.821747,167.208649 347.761841,191.895477 341.706360,216.581039 
	C339.890198,223.984711 338.550232,231.505188 336.992065,238.972137 
	C330.304016,238.976639 323.615997,238.981140 316.458618,238.971222 
z"/>
<path fill="#6069F6" opacity="1.000000" stroke="none" 
	d="
M385.459900,238.994476 
	C387.192291,233.202667 389.959595,227.558243 391.472412,221.595535 
	C395.342834,206.340271 398.497925,190.904709 402.260010,175.620255 
	C403.999786,168.552002 406.653870,161.713791 408.593903,154.688568 
	C410.868927,146.450180 412.797363,138.116531 414.913361,129.833710 
	C418.401459,116.179588 421.975891,102.547234 425.397644,88.876602 
	C426.808868,83.238510 427.168579,77.200806 429.432190,71.960709 
	C430.926300,68.501953 434.660980,65.720177 437.929596,63.388172 
	C442.636169,60.030262 445.387482,53.689632 443.475708,48.372578 
	C443.093262,47.308792 442.391418,45.611988 441.682678,45.529369 
	C434.811249,44.728306 436.179932,39.034843 435.033997,34.411568 
	C439.021423,34.006413 443.046539,34.005672 447.567108,34.367207 
	C450.584717,37.159481 452.940186,39.798058 455.664673,41.974785 
	C460.864105,46.128799 461.285095,48.327030 456.661072,52.753864 
	C453.614655,55.670330 451.374329,58.406597 452.679443,63.136097 
	C453.162048,64.885048 451.715179,67.202438 451.043945,69.225945 
	C449.811279,72.941879 446.794678,77.054489 447.583954,80.243927 
	C449.156586,86.598831 446.149506,90.538986 444.086334,95.882286 
	C438.614990,110.052490 434.954956,124.971680 431.250458,139.762238 
	C426.348602,159.333588 422.196533,179.091537 417.502991,198.716858 
	C415.572998,206.786972 412.965881,214.692886 410.873169,222.727249 
	C409.724060,227.138672 407.554077,230.493286 403.651184,233.043060 
	C401.422455,234.499130 399.860657,236.976028 397.998535,238.993286 
	C393.973511,238.994492 389.948456,238.995697 385.459900,238.994476 
z"/>
<path fill="#6A72F6" opacity="1.000000" stroke="none" 
	d="
M337.460449,238.981171 
	C338.550232,231.505188 339.890198,223.984711 341.706360,216.581039 
	C347.761841,191.895477 353.821747,167.208649 360.205780,142.606842 
	C364.669067,125.406876 369.721100,108.360405 374.388763,91.212334 
	C375.776489,86.114143 376.422577,80.798264 378.028564,75.780609 
	C379.191559,72.147064 381.009460,68.578339 383.224487,65.472206 
	C384.990234,62.996155 386.373596,61.201630 384.917145,57.926476 
	C384.197235,56.307613 385.153076,53.919926 385.423981,51.889870 
	C385.787231,49.167709 386.353485,46.466438 386.589630,43.735191 
	C386.847260,40.755501 386.827271,37.751797 386.959656,34.393429 
	C392.347198,34.023884 397.703400,34.019470 403.528320,34.470787 
	C403.999054,36.258728 403.826233,37.618809 404.033478,38.918262 
	C404.885010,44.257042 405.101990,49.330090 401.246521,53.916031 
	C400.453461,54.859367 400.733459,57.586742 401.544495,58.814049 
	C403.259155,61.408772 402.329620,62.961403 400.643005,64.938225 
	C398.617737,67.312012 396.235474,69.753426 395.275482,72.593979 
	C392.409760,81.073425 389.921967,89.701027 387.722717,98.381271 
	C382.048157,120.778206 376.620178,143.237549 371.069977,165.666092 
	C367.555542,179.868103 363.859497,194.026825 360.507782,208.266846 
	C358.110779,218.450729 356.149902,228.737259 353.994415,238.977966 
	C348.639191,238.982040 343.283997,238.986115 337.460449,238.981171 
z"/>
<path fill="#848AF6" opacity="1.000000" stroke="none" 
	d="
M323.512695,34.069237 
	C323.144257,39.172802 321.929749,44.278580 326.923340,48.234364 
	C327.626709,48.791569 328.068878,50.674683 327.673004,51.461739 
	C325.086456,56.603973 322.318634,61.661156 319.440674,66.648369 
	C317.670502,69.715843 314.715027,72.366920 313.820129,75.624771 
	C310.256836,88.597321 307.370697,101.754089 304.091827,114.806976 
	C297.976501,139.151459 291.721191,163.460770 285.603088,187.804550 
	C281.388123,204.575851 277.306061,221.380554 273.076477,238.539948 
	C267.965179,238.922180 262.942017,238.934769 257.468445,238.521805 
	C262.010284,217.738419 266.944946,197.366241 272.012970,177.027298 
	C276.077942,160.713715 280.239014,144.423340 284.480957,128.154892 
	C287.751740,115.611084 291.279388,103.134232 294.544250,90.588951 
	C295.333496,87.556335 295.306335,84.314713 296.053772,81.267090 
	C297.883972,73.804405 298.411591,65.833534 305.595520,60.635895 
	C309.196259,58.030731 310.961456,53.409985 308.719513,49.495766 
	C305.772430,44.350475 306.048645,39.402176 306.983368,34.111507 
	C312.338104,34.089825 317.692810,34.068142 323.512695,34.069237 
z"/>
<path fill="#5E67F6" opacity="1.000000" stroke="none" 
	d="
M398.415405,238.994965 
	C399.860657,236.976028 401.422455,234.499130 403.651184,233.043060 
	C407.554077,230.493286 409.724060,227.138672 410.873169,222.727249 
	C412.965881,214.692886 415.572998,206.786972 417.502991,198.716858 
	C422.196533,179.091537 426.348602,159.333588 431.250458,139.762238 
	C434.954956,124.971680 438.614990,110.052490 444.086334,95.882286 
	C446.149506,90.538986 449.156586,86.598831 447.583954,80.243927 
	C446.794678,77.054489 449.811279,72.941879 451.043945,69.225945 
	C451.715179,67.202438 453.162048,64.885048 452.679443,63.136097 
	C451.374329,58.406597 453.614655,55.670330 456.661072,52.753864 
	C461.285095,48.327030 460.864105,46.128799 455.664673,41.974785 
	C452.940186,39.798058 450.584717,37.159481 448.030151,34.368107 
	C448.165375,34.004700 448.333038,34.002663 448.752167,33.997543 
	C450.716919,33.996918 452.430145,33.999378 454.571747,34.003777 
	C456.954468,35.924328 458.887512,37.865295 460.868439,39.756096 
	C463.535370,42.301689 466.262085,44.784866 468.919434,47.340275 
	C470.752625,49.103134 472.511780,50.942989 474.304047,52.748432 
	C474.667633,52.489403 475.031219,52.230373 475.394806,51.971348 
	C476.172241,55.352139 476.949677,58.732933 477.956909,63.113121 
	C475.119568,61.946690 473.390442,61.235847 470.844513,60.189205 
	C468.783295,65.422951 467.142151,70.591347 464.748596,75.383965 
	C462.391754,80.103119 460.624512,84.561760 462.621246,89.904877 
	C462.940460,90.759102 461.337158,92.347321 460.594391,93.579193 
	C459.510712,95.376488 457.836304,97.031822 457.402527,98.969078 
	C455.673218,106.692749 454.511200,114.543404 452.783600,122.267517 
	C451.241394,129.162491 449.158508,135.934570 447.441101,142.792679 
	C442.928558,160.813034 438.480316,178.849503 434.016815,196.882111 
	C432.406616,203.387100 431.127533,209.992401 429.156372,216.385117 
	C426.626831,224.588547 418.863373,228.188049 413.021545,233.434097 
	C410.953094,235.291611 408.513214,236.735535 406.121582,238.681793 
	C405.250519,238.997482 404.500702,238.999649 403.376068,239.002426 
	C401.611572,239.000900 400.221954,238.998764 398.415405,238.994965 
z"/>
<path fill="#9296F6" opacity="1.000000" stroke="none" 
	d="
M236.983002,238.865356 
	C231.960114,238.890732 226.937241,238.916107 221.489502,238.517731 
	C224.572815,224.265839 228.212082,210.469101 231.535416,196.596695 
	C233.270020,189.356049 234.448547,181.982193 236.146179,174.464508 
	C245.250443,170.313324 245.648712,169.308914 242.009247,160.418457 
	C241.573425,159.353775 241.289673,158.226852 241.090134,156.784119 
	C244.472168,144.401794 247.811234,132.392731 250.903885,120.320549 
	C257.629120,94.068672 264.247345,67.789284 270.848236,41.505810 
	C271.450409,39.108047 271.612396,36.599724 271.978790,34.142742 
	C275.672485,34.113594 279.366150,34.084446 283.527710,34.301422 
	C283.995575,34.547539 284.009430,34.989475 284.007751,35.429764 
	C285.638702,43.720406 284.088959,51.452827 282.335114,58.960918 
	C279.123535,72.709351 275.092896,86.264534 271.537140,99.934990 
	C267.182861,116.675453 262.950745,133.447769 258.693085,150.213226 
	C253.945129,168.909454 249.150284,187.594315 244.526917,206.321426 
	C241.858154,217.131363 239.487717,228.014923 236.983002,238.865356 
z"/>
<path fill="#6770F6" opacity="1.000000" stroke="none" 
	d="
M354.459595,238.984558 
	C356.149902,228.737259 358.110779,218.450729 360.507782,208.266846 
	C363.859497,194.026825 367.555542,179.868103 371.069977,165.666092 
	C376.620178,143.237549 382.048157,120.778206 387.722717,98.381271 
	C389.921967,89.701027 392.409760,81.073425 395.275482,72.593979 
	C396.235474,69.753426 398.617737,67.312012 400.643005,64.938225 
	C402.329620,62.961403 403.259155,61.408772 401.544495,58.814049 
	C400.733459,57.586742 400.453461,54.859367 401.246521,53.916031 
	C405.101990,49.330090 404.885010,44.257042 404.033478,38.918262 
	C403.826233,37.618809 403.999054,36.258728 403.995575,34.474525 
	C408.019318,34.017151 412.044556,34.011768 416.532471,34.009155 
	C417.374573,36.784050 417.436584,39.648457 418.209259,42.306278 
	C419.318878,46.123035 419.173737,49.248104 416.330078,52.445744 
	C415.183105,53.735485 414.599731,57.110802 415.463196,58.293633 
	C417.659882,61.302967 416.702362,64.057076 414.568359,65.255333 
	C407.605103,69.165245 408.522461,76.587502 406.372223,82.478165 
	C403.481567,90.397232 401.586334,98.697495 399.537964,106.902565 
	C394.644684,126.503395 389.968781,146.158463 385.089020,165.762726 
	C382.846924,174.770126 380.226746,183.683289 377.973846,192.688171 
	C376.127350,200.068634 374.522949,207.511185 372.898773,214.945328 
	C371.212982,222.661758 369.632477,230.401184 368.000519,238.559418 
	C363.638336,238.989227 359.281555,238.990189 354.459595,238.984558 
z"/>
<path fill="#898EF6" opacity="1.000000" stroke="none" 
	d="
M306.517029,34.082020 
	C306.048645,39.402176 305.772430,44.350475 308.719513,49.495766 
	C310.961456,53.409985 309.196259,58.030731 305.595520,60.635895 
	C298.411591,65.833534 297.883972,73.804405 296.053772,81.267090 
	C295.306335,84.314713 295.333496,87.556335 294.544250,90.588951 
	C291.279388,103.134232 287.751740,115.611084 284.480957,128.154892 
	C280.239014,144.423340 276.077942,160.713715 272.012970,177.027298 
	C266.944946,197.366241 262.010284,217.738419 257.001465,238.492706 
	C253.955994,238.905975 250.927078,238.922775 247.459686,238.512299 
	C249.673035,227.274979 252.334793,216.467407 254.974091,205.654343 
	C258.008057,193.224365 260.962280,180.774597 264.058533,168.360214 
	C269.089203,148.189865 274.150726,128.026825 279.306976,107.888283 
	C283.179413,92.763893 287.172882,77.669746 291.263275,62.603081 
	C291.661133,61.137630 292.902618,59.690060 294.127350,58.696091 
	C300.021393,53.912575 299.470551,46.967133 293.318573,42.503532 
	C290.388947,40.377895 288.410278,36.941544 286.000854,34.098930 
	C292.684143,34.083462 299.367432,34.067997 306.517029,34.082020 
z"/>
<path fill="#8C91F6" opacity="1.000000" stroke="none" 
	d="
M285.744873,34.082455 
	C288.410278,36.941544 290.388947,40.377895 293.318573,42.503532 
	C299.470551,46.967133 300.021393,53.912575 294.127350,58.696091 
	C292.902618,59.690060 291.661133,61.137630 291.263275,62.603081 
	C287.172882,77.669746 283.179413,92.763893 279.306976,107.888283 
	C274.150726,128.026825 269.089203,148.189865 264.058533,168.360214 
	C260.962280,180.774597 258.008057,193.224365 254.974091,205.654343 
	C252.334793,216.467407 249.673035,227.274979 247.006195,238.480927 
	C243.957901,238.900528 240.924637,238.924194 237.437195,238.906601 
	C239.487717,228.014923 241.858154,217.131363 244.526917,206.321426 
	C249.150284,187.594315 253.945129,168.909454 258.693085,150.213226 
	C262.950745,133.447769 267.182861,116.675453 271.537140,99.934990 
	C275.092896,86.264534 279.123535,72.709351 282.335114,58.960918 
	C284.088959,51.452827 285.638702,43.720406 284.181763,35.291233 
	C284.581940,34.517719 284.788086,34.305206 284.975891,34.074879 
	C285.146851,34.071915 285.317841,34.068947 285.744873,34.082455 
z"/>
<path fill="#9A9DF6" opacity="1.000000" stroke="none" 
	d="
M271.514038,34.105431 
	C271.612396,36.599724 271.450409,39.108047 270.848236,41.505810 
	C264.247345,67.789284 257.629120,94.068672 250.903885,120.320549 
	C247.811234,132.392731 244.472168,144.401794 240.853668,156.520615 
	C236.835785,148.086853 233.209106,139.571930 229.903717,130.861679 
	C231.708694,126.854141 233.603226,123.147018 234.609360,119.212700 
	C241.141388,93.669876 247.508087,68.084557 253.841278,42.491459 
	C254.511383,39.783554 254.613190,36.935017 254.978638,34.151726 
	C260.335510,34.123852 265.692383,34.095985 271.514038,34.105431 
z"/>
<path fill="#A2A5F6" opacity="1.000000" stroke="none" 
	d="
M254.514709,34.111221 
	C254.613190,36.935017 254.511383,39.783554 253.841278,42.491459 
	C247.508087,68.084557 241.141388,93.669876 234.609360,119.212700 
	C233.603226,123.147018 231.708694,126.854141 229.707611,130.599899 
	C226.078033,123.103798 222.965836,115.674126 220.014160,107.895317 
	C221.259979,104.401711 222.595917,101.319122 223.390030,98.102768 
	C228.648529,76.804977 233.790756,55.478474 238.970825,34.161324 
	C243.997482,34.131123 249.024124,34.100922 254.514709,34.111221 
z"/>
<path fill="#C4C5F6" opacity="1.000000" stroke="none" 
	d="
M38.034958,72.230484 
	C46.827332,68.277840 55.619705,64.325188 64.749817,60.139614 
	C65.087547,59.906685 65.212708,59.936817 65.335297,60.277290 
	C67.452942,60.953072 69.561958,61.888416 71.426109,61.534397 
	C103.412071,55.459976 135.368820,49.231571 167.329315,43.023266 
	C173.842117,41.758160 174.650726,40.790340 174.985504,34.163986 
	C180.008423,34.131317 185.031342,34.098652 190.520813,34.533569 
	C189.670746,41.280136 188.354141,47.559116 186.691971,53.729645 
	C183.262115,52.755558 180.177826,51.889923 176.729782,50.877495 
	C174.734818,50.616215 173.042557,50.162506 171.482513,50.443352 
	C162.636261,52.035889 153.826599,53.830177 144.995392,55.507988 
	C112.953522,61.595524 80.926727,67.767052 48.836552,73.588860 
	C45.430279,74.206825 41.644615,72.733574 38.034958,72.230484 
z"/>
<path fill="#AAACF6" opacity="1.000000" stroke="none" 
	d="
M238.507217,34.117481 
	C233.790756,55.478474 228.648529,76.804977 223.390030,98.102768 
	C222.595917,101.319122 221.259979,104.401711 219.774780,107.630035 
	C216.208191,100.213120 213.041504,92.712334 210.032867,84.851295 
	C212.815292,73.691856 215.486237,62.903683 218.045654,52.089111 
	C219.454559,46.135986 220.675964,40.138481 221.981903,34.160988 
	C227.335800,34.131874 232.689713,34.102757 238.507217,34.117481 
z"/>
<path fill="#D8F4F5" opacity="1.000000" stroke="none" 
	d="
M94.770767,23.493492 
	C100.034485,25.064283 105.073303,26.659111 110.502090,28.328087 
	C115.369537,29.945276 119.847000,31.488312 124.529190,33.458706 
	C123.062706,34.901810 121.473259,36.097065 119.706062,36.902134 
	C112.168228,40.336094 104.577843,43.654732 96.652603,47.094322 
	C85.936615,51.427742 75.574661,55.682281 65.212708,59.936817 
	C65.212708,59.936817 65.087547,59.906685 65.045059,59.955067 
	C67.699615,53.939625 70.396667,47.875801 73.168945,41.449532 
	C74.979088,37.516865 76.713997,33.946640 79.097931,30.127962 
	C84.529869,27.743959 89.312782,25.608410 94.095703,23.472860 
	C94.095703,23.472860 94.545860,23.517525 94.770767,23.493492 
z"/>
<path fill="#CDCDF6" opacity="1.000000" stroke="none" 
	d="
M65.335297,60.277290 
	C75.574661,55.682281 85.936615,51.427742 96.981552,47.288589 
	C103.703995,46.609158 109.803055,46.121216 115.771774,44.962139 
	C133.881454,41.445385 151.940720,37.668964 170.019608,33.993687 
	C171.400787,34.015854 172.781982,34.038017 174.574341,34.112083 
	C174.650726,40.790340 173.842117,41.758160 167.329315,43.023266 
	C135.368820,49.231571 103.412071,55.459976 71.426109,61.534397 
	C69.561958,61.888416 67.452942,60.953072 65.335297,60.277290 
z"/>
<path fill="#D5D4F6" opacity="1.000000" stroke="none" 
	d="
M169.863251,33.674500 
	C151.940720,37.668964 133.881454,41.445385 115.771774,44.962139 
	C109.803055,46.121216 103.703995,46.609158 97.335587,47.209713 
	C104.577843,43.654732 112.168228,40.336094 119.706062,36.902134 
	C121.473259,36.097065 123.062706,34.901810 124.889023,33.595512 
	C127.245705,32.711037 129.544388,32.350403 131.631561,31.481598 
	C139.432343,28.234434 147.133438,24.747959 154.931412,21.493809 
	C160.692154,19.089811 163.942200,20.439230 166.536133,26.065769 
	C167.645233,28.471558 168.653046,30.924047 169.863251,33.674500 
z"/>
<path fill="#B2B4F6" opacity="1.000000" stroke="none" 
	d="
M221.518799,34.115479 
	C220.675964,40.138481 219.454559,46.135986 218.045654,52.089111 
	C215.486237,62.903683 212.815292,73.691856 209.797028,84.585037 
	C206.236862,77.173241 203.070557,69.667442 200.059662,61.804310 
	C202.470917,52.353062 204.726761,43.259155 206.982605,34.165249 
	C211.673630,34.133488 216.364655,34.101730 221.518799,34.115479 
z"/>
<path fill="#BBBCF6" opacity="1.000000" stroke="none" 
	d="
M206.518997,34.117180 
	C204.726761,43.259155 202.470917,52.353062 199.863403,61.647152 
	C199.306671,61.583538 199.101624,61.319740 198.789581,60.727440 
	C196.388535,55.394043 191.132706,55.646111 187.037537,53.838097 
	C188.354141,47.559116 189.670746,41.280136 190.984253,34.582882 
	C196.005905,34.132778 201.030655,34.100945 206.518997,34.117180 
z"/>
<path fill="#898EF6" opacity="1.000000" stroke="none" 
	d="
M284.725952,34.068748 
	C284.788086,34.305206 284.581940,34.517719 284.183411,34.850945 
	C284.009430,34.989475 283.995575,34.547539 283.986786,34.327202 
	C283.977997,34.106869 284.476013,34.062618 284.725952,34.068748 
z"/>
<path fill="#F0F6F6" opacity="1.000000" stroke="none" 
	d="
M69.151070,211.016159 
	C59.094296,187.965637 49.034702,164.916367 38.984154,141.863129 
	C37.661594,138.829529 36.385288,135.775757 35.454697,132.367676 
	C41.773533,133.355667 47.725231,134.707291 53.968018,136.321747 
	C58.510818,137.671188 62.762535,138.757797 67.373161,139.977386 
	C72.161705,141.327438 76.591339,142.544525 81.386017,143.898163 
	C86.834290,145.351837 91.917519,146.668930 97.305054,148.197144 
	C102.379913,149.662933 107.150482,150.917603 112.206001,152.401474 
	C113.750839,153.001343 115.000214,153.413422 116.272278,153.736069 
	C125.479553,156.071259 134.691406,158.388382 143.894440,161.098953 
	C143.513977,162.748413 143.335831,164.112198 142.737244,165.255936 
	C137.422043,175.411850 132.085266,185.557266 126.650360,195.649536 
	C120.826599,206.463867 114.889816,217.217346 108.638603,227.920425 
	C95.233589,222.234360 82.192329,216.625259 69.151070,211.016159 
z"/>
<path fill="#AFB2F6" opacity="1.000000" stroke="none" 
	d="
M37.650208,98.138100 
	C36.813187,96.315086 35.976170,94.492065 35.512642,92.329430 
	C36.879734,91.909897 37.890865,91.922089 38.864414,91.736801 
	C79.855362,83.935204 120.849419,76.149529 161.824615,68.265839 
	C168.633453,66.955811 175.358215,65.208893 182.338074,63.949215 
	C183.378250,66.152992 184.202209,68.071411 184.636917,70.074570 
	C167.120712,73.443756 149.966141,76.593445 132.882996,80.091759 
	C127.499947,81.194099 122.308266,83.230896 116.560684,84.887596 
	C109.770058,84.959702 103.447556,85.022171 97.125511,84.991508 
	C94.285324,84.977737 92.175262,85.718849 91.547180,89.006271 
	C87.518982,89.561890 83.903496,90.055283 80.310410,90.677910 
	C66.086540,93.142662 51.869671,95.647881 37.650208,98.138100 
z"/>
<path fill="#BBBCF6" opacity="1.000000" stroke="none" 
	d="
M33.581554,88.603851 
	C32.638233,86.330856 31.694908,84.057854 31.222485,81.395996 
	C34.342167,80.863472 37.045433,81.012604 39.631386,80.531349 
	C69.010506,75.063828 98.381943,69.553619 127.733696,63.941120 
	C144.526428,60.730103 161.279343,57.310768 178.266129,54.237377 
	C179.297562,56.329552 180.113037,58.169579 180.510315,60.011139 
	C168.002243,62.189964 155.897537,64.288414 143.825363,66.559692 
	C110.850212,72.763687 77.881683,79.003716 44.931427,85.338120 
	C41.081161,86.078300 37.361671,87.498764 33.581554,88.603851 
z"/>
<path fill="#BFC0F6" opacity="1.000000" stroke="none" 
	d="
M178.050186,53.985226 
	C161.279343,57.310768 144.526428,60.730103 127.733696,63.941120 
	C98.381943,69.553619 69.010506,75.063828 39.631386,80.531349 
	C37.045433,81.012604 34.342167,80.863472 31.218994,81.010170 
	C30.084873,75.941666 33.333607,73.863098 37.696098,72.304199 
	C41.644615,72.733574 45.430279,74.206825 48.836552,73.588860 
	C80.926727,67.767052 112.953522,61.595524 144.995392,55.507988 
	C153.826599,53.830177 162.636261,52.035889 171.482513,50.443352 
	C173.042557,50.162506 174.734818,50.616215 176.847000,51.165878 
	C177.568710,52.395779 177.809448,53.190502 178.050186,53.985226 
z"/>
<path fill="#B4B6F6" opacity="1.000000" stroke="none" 
	d="
M33.666924,88.897842 
	C37.361671,87.498764 41.081161,86.078300 44.931427,85.338120 
	C77.881683,79.003716 110.850212,72.763687 143.825363,66.559692 
	C155.897537,64.288414 168.002243,62.189964 180.598877,60.325085 
	C181.444382,61.646286 181.783112,62.655071 182.121857,63.663864 
	C175.358215,65.208893 168.633453,66.955811 161.824615,68.265839 
	C120.849419,76.149529 79.855362,83.935204 38.864414,91.736801 
	C37.890865,91.922089 36.879734,91.909897 35.467175,91.992386 
	C34.616241,91.060593 34.184265,90.126213 33.666924,88.897842 
z"/>
<path fill="#E8EEEF" opacity="1.000000" stroke="none" 
	d="
M69.151794,211.328293 
	C82.192329,216.625259 95.233589,222.234360 108.641434,228.183807 
	C109.011147,228.699677 109.014290,228.875214 108.765137,229.284988 
	C106.443634,230.487228 104.327400,231.367233 102.315338,232.442215 
	C98.507019,234.476898 94.758492,236.623505 90.985123,238.723602 
	C80.974197,239.301102 80.974197,239.301102 78.319794,233.076172 
	C77.207909,230.716415 76.364311,228.606384 75.283249,226.241165 
	C73.316521,221.788956 71.587257,217.591949 69.653061,213.124207 
	C69.349594,212.449127 69.251060,212.044785 69.151794,211.328293 
z"/>
<path fill="#A2A5F6" opacity="1.000000" stroke="none" 
	d="
M41.926903,109.827240 
	C41.575516,108.480972 41.224133,107.134697 41.239761,105.423271 
	C59.373116,101.709793 77.139458,98.361465 95.097961,95.305634 
	C96.496712,98.069153 97.703308,100.540192 98.491417,103.012329 
	C81.226295,106.085167 64.374901,109.131569 47.544880,112.291771 
	C46.538273,112.480789 45.702618,113.580208 44.566437,114.006775 
	C43.539272,112.447449 42.733086,111.137344 41.926903,109.827240 
z"/>
<path fill="#AAACF6" opacity="1.000000" stroke="none" 
	d="
M94.905800,95.013145 
	C77.139458,98.361465 59.373116,101.709793 41.147659,105.083794 
	C39.737865,103.015854 38.787186,100.922234 37.743355,98.483353 
	C51.869671,95.647881 66.086540,93.142662 80.310410,90.677910 
	C83.903496,90.055283 87.518982,89.561890 91.731201,89.288193 
	C93.194084,91.382561 94.049942,93.197853 94.905800,95.013145 
z"/>
<path fill="#D8F4F5" opacity="1.000000" stroke="none" 
	d="
M41.686176,110.094070 
	C42.733086,111.137344 43.539272,112.447449 44.653740,114.341095 
	C45.899532,117.033165 46.837040,119.141678 47.862995,121.586555 
	C48.893280,124.035347 49.835117,126.147789 50.852619,128.584137 
	C51.597984,130.275665 52.267685,131.643311 52.975967,133.322906 
	C53.235344,134.442886 53.456135,135.250900 53.676926,136.058914 
	C47.725231,134.707291 41.773533,133.355667 35.407505,132.006561 
	C35.071587,129.237061 34.507702,126.244377 35.367760,123.740883 
	C36.952084,119.129196 39.373104,114.804939 41.686176,110.094070 
z"/>
<path fill="#9A9DF6" opacity="1.000000" stroke="none" 
	d="
M235.878235,174.668503 
	C234.448547,181.982193 233.270020,189.356049 231.535416,196.596695 
	C228.212082,210.469101 224.572815,224.265839 221.023178,238.475891 
	C215.628525,238.886566 210.275314,238.915344 204.544601,238.535797 
	C207.161484,226.533646 210.317657,214.978302 213.088287,203.331268 
	C214.694336,196.579819 215.680191,189.680847 217.199097,182.609131 
	C223.594772,179.802841 229.736496,177.235672 235.878235,174.668503 
z"/>
<path fill="#A2A5F6" opacity="1.000000" stroke="none" 
	d="
M216.945160,182.848267 
	C215.680191,189.680847 214.694336,196.579819 213.088287,203.331268 
	C210.317657,214.978302 207.161484,226.533646 204.078400,238.489304 
	C199.297119,238.881470 194.604507,238.911804 189.490601,238.499359 
	C191.017899,229.497482 192.961273,220.937195 194.916626,212.379639 
	C196.610489,204.966431 198.317932,197.556351 200.329865,189.961731 
	C206.075287,187.468475 211.510223,185.158371 216.945160,182.848267 
z"/>
<path fill="#AAACF6" opacity="1.000000" stroke="none" 
	d="
M200.019394,190.144897 
	C198.317932,197.556351 196.610489,204.966431 194.916626,212.379639 
	C192.961273,220.937195 191.017899,229.497482 189.025864,238.448608 
	C183.626205,238.874954 178.269989,238.909271 172.464813,238.494171 
	C172.865036,234.322723 173.720169,230.602051 174.562271,226.878403 
	C176.720932,217.333130 178.873825,207.786530 181.370316,198.102707 
	C187.814224,195.358261 193.916809,192.751572 200.019394,190.144897 
z"/>
<path fill="#B2B4F6" opacity="1.000000" stroke="none" 
	d="
M181.029007,198.240463 
	C178.873825,207.786530 176.720932,217.333130 174.562271,226.878403 
	C173.720169,230.602051 172.865036,234.322723 171.998886,238.439819 
	C166.627930,238.871872 161.273941,238.908875 155.545166,238.541656 
	C158.110641,227.418900 161.050888,216.700394 164.262512,205.764954 
	C170.032257,203.112183 175.530640,200.676331 181.029007,198.240463 
z"/>
<path fill="#BBBCF6" opacity="1.000000" stroke="none" 
	d="
M163.991135,205.981873 
	C161.050888,216.700394 158.110641,227.418900 155.080002,238.484695 
	C151.959091,238.905792 148.928589,238.979630 145.446854,239.110092 
	C142.620804,239.095154 140.245972,239.023590 137.524994,238.570831 
	C144.047668,231.168823 145.892410,222.001648 148.236450,212.714478 
	C153.666656,210.324387 158.828903,208.153137 163.991135,205.981873 
z"/>
<path fill="#D5D4F6" opacity="1.000000" stroke="none" 
	d="
M93.843719,23.246090 
	C89.312782,25.608410 84.529869,27.743959 79.365295,29.892752 
	C79.237457,29.142939 79.491272,28.379881 79.786896,27.313616 
	C82.797096,20.457802 85.294701,19.733530 93.843719,23.246090 
z"/>
<path fill="#CDCDF6" opacity="1.000000" stroke="none" 
	d="
M91.394531,238.816696 
	C94.758492,236.623505 98.507019,234.476898 102.315338,232.442215 
	C104.327400,231.367233 106.443634,230.487228 109.120888,229.198959 
	C117.129997,225.875778 124.531067,222.872849 131.912781,220.266541 
	C131.369247,227.471741 128.021927,232.233154 121.826675,235.207336 
	C120.589066,235.801483 119.917488,237.574677 118.984924,238.804230 
	C118.542519,238.869934 118.100113,238.935654 117.330017,239.073151 
	C110.314201,239.105728 103.626099,239.066498 96.474869,239.091461 
	C94.609146,239.073715 93.206543,238.991760 91.394531,238.816696 
z"/>
<path fill="#C4C5F6" opacity="1.000000" stroke="none" 
	d="
M119.449875,238.868805 
	C119.917488,237.574677 120.589066,235.801483 121.826675,235.207336 
	C128.021927,232.233154 131.369247,227.471741 132.177567,220.048843 
	C137.630615,217.267441 142.799530,215.100372 147.968460,212.933304 
	C145.892410,222.001648 144.047668,231.168823 137.083725,238.509094 
	C131.297363,238.863480 125.606102,238.898438 119.449875,238.868805 
z"/>
<path fill="#E7F6F6" opacity="1.000000" stroke="none" 
	d="
M148.236450,212.714478 
	C142.799530,215.100372 137.630615,217.267441 132.196899,219.652206 
	C124.531067,222.872849 117.129997,225.875778 109.373177,228.964737 
	C109.014290,228.875214 109.011147,228.699677 109.005188,228.260757 
	C114.889816,217.217346 120.826599,206.463867 126.650360,195.649536 
	C132.085266,185.557266 137.422043,175.411850 142.737244,165.255936 
	C143.335831,164.112198 143.513977,162.748413 144.127396,160.862854 
	C147.571396,154.491425 150.775085,148.743820 154.225739,142.762329 
	C155.715195,140.041824 156.957672,137.555191 158.449280,134.847595 
	C159.795486,132.411713 160.892563,130.196777 162.232910,127.743690 
	C163.691818,125.062294 164.907455,122.619057 166.376099,119.945938 
	C167.750473,117.473885 168.871841,115.231697 170.232086,112.747208 
	C171.692474,110.055283 172.913971,107.605675 174.380920,104.915924 
	C176.079895,101.777367 177.533417,98.878937 179.223358,95.735260 
	C181.033997,92.335068 182.608246,89.180145 184.420929,85.797333 
	C186.064865,82.784431 187.470398,79.999435 189.061493,76.909729 
	C192.463562,71.421997 195.680069,66.238968 198.896576,61.055939 
	C199.101624,61.319740 199.306671,61.583538 199.707977,62.004494 
	C203.070557,69.667442 206.236862,77.173241 209.638992,84.945282 
	C213.041504,92.712334 216.208191,100.213120 219.614258,107.979187 
	C222.965836,115.674126 226.078033,123.103798 229.386322,130.795242 
	C233.209106,139.571930 236.835785,148.086853 240.698944,156.865265 
	C241.289673,158.226852 241.573425,159.353775 242.009247,160.418457 
	C245.648712,169.308914 245.250443,170.313324 236.146179,174.464508 
	C229.736496,177.235672 223.594772,179.802841 217.199097,182.609131 
	C211.510223,185.158371 206.075287,187.468475 200.329865,189.961746 
	C193.916809,192.751572 187.814224,195.358261 181.370316,198.102707 
	C175.530640,200.676331 170.032257,203.112183 164.262512,205.764954 
	C158.828903,208.153137 153.666656,210.324387 148.236450,212.714478 
z"/>
<path fill="#D8F4F5" opacity="1.000000" stroke="none" 
	d="
M198.789581,60.727440 
	C195.680069,66.238968 192.463562,71.421997 188.863464,76.736877 
	C188.268982,76.589661 188.058090,76.310593 187.772156,75.702438 
	C186.806808,73.578842 185.916489,71.784340 185.026169,69.989830 
	C184.202209,68.071411 183.378250,66.152992 182.338074,63.949211 
	C181.783112,62.655071 181.444382,61.646286 181.017090,60.323547 
	C180.113037,58.169579 179.297562,56.329552 178.266129,54.237377 
	C177.809448,53.190502 177.568710,52.395779 177.210754,51.312672 
	C180.177826,51.889923 183.262115,52.755558 186.691971,53.729645 
	C191.132706,55.646111 196.388535,55.394043 198.789581,60.727440 
z"/>
<path fill="#848AF6" opacity="1.000000" stroke="none" 
	d="
M169.993195,112.989517 
	C168.871841,115.231697 167.750473,117.473885 166.059021,119.726257 
	C164.200653,119.608955 162.853241,119.168922 161.632690,119.399719 
	C131.925034,125.017136 102.222153,130.661469 72.553856,136.481674 
	C70.564011,136.872040 68.854271,138.690277 67.014252,139.844406 
	C62.762535,138.757797 58.510818,137.671188 53.968014,136.321747 
	C53.456135,135.250900 53.235344,134.442886 53.409363,133.319946 
	C55.613190,132.812698 57.449318,132.757690 59.227005,132.406708 
	C76.303322,129.035080 93.355522,125.539993 110.443054,122.226852 
	C127.695610,118.881721 144.966782,115.626495 162.266418,112.537025 
	C164.736313,112.095932 167.412491,112.810043 169.993195,112.989517 
z"/>
<path fill="#7D83F6" opacity="1.000000" stroke="none" 
	d="
M67.373161,139.977386 
	C68.854271,138.690277 70.564011,136.872040 72.553856,136.481674 
	C102.222153,130.661469 131.925034,125.017136 161.632690,119.399719 
	C162.853241,119.168922 164.200653,119.608955 165.806030,119.956131 
	C164.907455,122.619057 163.691818,125.062294 161.921265,127.556610 
	C156.803299,128.186890 152.201477,128.554672 147.684021,129.382660 
	C130.059189,132.613022 112.436523,135.866821 94.869316,139.392273 
	C90.150948,140.339172 85.631653,142.278076 81.020973,143.761597 
	C76.591339,142.544525 72.161705,141.327438 67.373161,139.977386 
z"/>
<path fill="#757CF6" opacity="1.000000" stroke="none" 
	d="
M81.386017,143.898163 
	C85.631653,142.278076 90.150948,140.339172 94.869316,139.392273 
	C112.436523,135.866821 130.059189,132.613022 147.684021,129.382660 
	C152.201477,128.554672 156.803299,128.186890 161.678009,127.794762 
	C160.892563,130.196777 159.795486,132.411713 158.016907,134.845856 
	C138.532288,138.476089 119.721382,141.845749 100.941582,145.380600 
	C99.515038,145.649124 98.309181,147.090073 97.000748,147.986038 
	C91.917519,146.668930 86.834290,145.351837 81.386017,143.898163 
z"/>
<path fill="#6770F6" opacity="1.000000" stroke="none" 
	d="
M153.978775,142.996216 
	C150.775085,148.743820 147.571396,154.491425 144.134766,160.475128 
	C134.691406,158.388382 125.479553,156.071259 116.272278,153.736069 
	C115.000214,153.413422 113.750839,153.001343 112.358871,152.066437 
	C113.146248,150.855759 113.993912,149.800903 114.996048,149.624741 
	C127.977501,147.342453 140.980911,145.185089 153.978775,142.996216 
z"/>
<path fill="#6E76F6" opacity="1.000000" stroke="none" 
	d="
M154.225739,142.762329 
	C140.980911,145.185089 127.977501,147.342453 114.996048,149.624741 
	C113.993912,149.800903 113.146248,150.855759 112.073914,151.837234 
	C107.150482,150.917603 102.379913,149.662933 97.305054,148.197144 
	C98.309181,147.090073 99.515038,145.649124 100.941582,145.380600 
	C119.721382,141.845749 138.532288,138.476089 157.767792,135.066803 
	C156.957672,137.555191 155.715195,140.041824 154.225739,142.762329 
z"/>
<path fill="#F4F5F6" opacity="1.000000" stroke="none" 
	d="
M95.097961,95.305634 
	C94.049942,93.197853 93.194084,91.382561 92.154205,89.285339 
	C92.175262,85.718849 94.285324,84.977737 97.125511,84.991508 
	C103.447556,85.022171 109.770058,84.959702 117.023590,84.931114 
	C123.584900,85.300766 129.214981,85.674492 134.885956,86.420761 
	C133.594986,89.518021 132.263107,92.242737 130.663315,95.161331 
	C128.262787,98.236206 126.130211,101.117188 123.725601,104.189774 
	C121.343452,107.259895 119.233322,110.138405 116.887146,113.263870 
	C115.806519,114.515686 114.931824,115.496933 114.122414,116.529366 
	C110.109123,121.648491 108.152077,121.478584 105.102951,115.403191 
	C104.039940,113.382355 103.037956,111.687035 102.029633,109.636589 
	C100.985489,107.191383 99.947693,105.101303 98.909897,103.011230 
	C97.703308,100.540192 96.496712,98.069153 95.097961,95.305634 
z"/>
<path fill="#AAACF6" opacity="1.000000" stroke="none" 
	d="
M134.845062,86.048210 
	C129.214981,85.674492 123.584900,85.300766 117.491913,84.883530 
	C122.308266,83.230896 127.499947,81.194099 132.882996,80.091759 
	C149.966141,76.593445 167.120712,73.443756 184.636917,70.074570 
	C185.916489,71.784340 186.806808,73.578842 187.403320,75.783302 
	C169.688034,79.478241 152.266556,82.763222 134.845062,86.048210 
z"/>
<path fill="#9A9DF6" opacity="1.000000" stroke="none" 
	d="
M98.491409,103.012329 
	C99.947693,105.101303 100.985489,107.191383 101.610321,109.651077 
	C88.304344,112.400841 75.387436,114.661011 62.530342,117.221519 
	C57.542145,118.214920 52.689144,119.887184 47.774551,121.250198 
	C46.837040,119.141678 45.899532,117.033165 44.874718,114.590317 
	C45.702618,113.580208 46.538273,112.480789 47.544880,112.291771 
	C64.374901,109.131569 81.226295,106.085167 98.491409,103.012329 
z"/>
<path fill="#8A90F6" opacity="1.000000" stroke="none" 
	d="
M105.163979,115.728714 
	C108.152077,121.478584 110.109123,121.648491 114.122414,116.529366 
	C114.931824,115.496933 115.806519,114.515686 117.236053,113.334412 
	C120.105072,113.039742 122.438889,113.183403 124.665123,112.760605 
	C138.783417,110.079277 152.861969,107.185493 166.996536,104.596123 
	C169.265839,104.180397 171.750397,104.939865 174.135452,105.156067 
	C172.913971,107.605675 171.692474,110.055283 170.232101,112.747208 
	C167.412491,112.810043 164.736313,112.095932 162.266418,112.537025 
	C144.966782,115.626495 127.695610,118.881721 110.443054,122.226852 
	C93.355522,125.539993 76.303322,129.035080 59.227005,132.406708 
	C57.449318,132.757690 55.613190,132.812698 53.370781,133.007996 
	C52.267685,131.643311 51.597984,130.275665 51.139328,128.314026 
	C52.545349,127.175186 53.689529,126.382156 54.943485,126.125526 
	C63.580830,124.357864 72.254913,122.769279 80.889992,120.991119 
	C88.998703,119.321358 97.073990,117.489342 105.163979,115.728714 
z"/>
<path fill="#9296F6" opacity="1.000000" stroke="none" 
	d="
M105.102951,115.403198 
	C97.073990,117.489342 88.998703,119.321358 80.889992,120.991119 
	C72.254913,122.769279 63.580830,124.357864 54.943485,126.125526 
	C53.689529,126.382156 52.545349,127.175186 51.063663,127.990112 
	C49.835117,126.147789 48.893280,124.035347 47.862995,121.586563 
	C52.689144,119.887184 57.542145,118.214920 62.530342,117.221519 
	C75.387436,114.661011 88.304344,112.400841 101.616669,110.006195 
	C103.037956,111.687035 104.039940,113.382355 105.102951,115.403198 
z"/>
<path fill="#9A9DF6" opacity="1.000000" stroke="none" 
	d="
M123.997620,103.998169 
	C126.130211,101.117188 128.262787,98.236206 131.090897,95.165062 
	C139.288437,93.628136 146.780991,92.225716 154.294815,90.948318 
	C164.248688,89.256111 174.219162,87.661674 184.182510,86.025223 
	C182.608246,89.180145 181.033997,92.335068 178.912170,95.548019 
	C177.391556,95.533638 176.376694,95.244102 175.451904,95.422234 
	C165.660477,97.308304 155.916489,99.461906 146.091461,101.145157 
	C138.778564,102.398026 131.365875,103.068382 123.997620,103.998169 
z"/>
<path fill="#A2A5F6" opacity="1.000000" stroke="none" 
	d="
M184.420929,85.797333 
	C174.219162,87.661674 164.248688,89.256111 154.294815,90.948318 
	C146.780991,92.225716 139.288437,93.628136 131.358826,94.971176 
	C132.263107,92.242737 133.594986,89.518021 134.885956,86.420761 
	C152.266556,82.763222 169.688034,79.478241 187.478363,76.112381 
	C188.058090,76.310593 188.268982,76.589661 188.677902,77.041580 
	C187.470398,79.999435 186.064865,82.784431 184.420929,85.797333 
z"/>
<path fill="#9296F6" opacity="1.000000" stroke="none" 
	d="
M123.725601,104.189774 
	C131.365875,103.068382 138.778564,102.398026 146.091461,101.145157 
	C155.916489,99.461906 165.660477,97.308304 175.451904,95.422234 
	C176.376694,95.244102 177.391556,95.533638 178.675781,95.793282 
	C177.533417,98.878937 176.079895,101.777367 174.380920,104.915932 
	C171.750397,104.939865 169.265839,104.180397 166.996536,104.596123 
	C152.861969,107.185493 138.783417,110.079277 124.665123,112.760605 
	C122.438889,113.183403 120.105072,113.039742 117.472099,113.087456 
	C119.233322,110.138405 121.343452,107.259895 123.725601,104.189774 
z"/>
</svg>