<?xml version="1.0" encoding="UTF-8"?>
<!DOCTYPE svg PUBLIC "-//W3C//DTD SVG 1.1//EN" "http://www.w3.org/Graphics/SVG/1.1/DTD/svg11.dtd">
<svg xmlns="http://www.w3.org/2000/svg" version="1.1" width="408px" height="254px" style="shape-rendering:geometricPrecision; text-rendering:geometricPrecision; image-rendering:optimizeQuality; fill-rule:evenodd; clip-rule:evenodd" xmlns:xlink="http://www.w3.org/1999/xlink">
<g><path style="opacity:0.004" fill="#555fea" d="M 159.5,-0.5 C 162.833,-0.5 166.167,-0.5 169.5,-0.5C 150.096,2.68296 130.762,6.84963 111.5,12C 101.061,14.5988 91.0607,18.0988 81.5,22.5C 79.597,22.2041 77.9303,21.5375 76.5,20.5C 89.7876,16.6764 103.121,12.8431 116.5,9C 130.921,5.61843 145.255,2.45176 159.5,-0.5 Z"/></g>
<g><path style="opacity:1" fill="#d4f0f3" d="M 76.5,20.5 C 77.9303,21.5375 79.597,22.2041 81.5,22.5C 89.9716,24.7684 98.3049,27.4351 106.5,30.5C 105.878,32.335 104.544,33.5017 102.5,34C 89.8405,39.0011 77.5072,44.5011 65.5,50.5C 59.1015,52.6331 52.7682,54.9664 46.5,57.5C 50.11,48.3404 54.11,39.3404 58.5,30.5C 59.6737,29.4863 60.3404,28.153 60.5,26.5C 61.0572,23.2077 62.7239,20.7077 65.5,19C 69.3618,18.2423 73.0284,18.7423 76.5,20.5 Z"/></g>
<g><path style="opacity:1" fill="#8093e9" d="M 60.5,26.5 C 60.3404,28.153 59.6737,29.4863 58.5,30.5C 58.2291,28.6203 58.8958,27.287 60.5,26.5 Z"/></g>
<g><path style="opacity:1" fill="#d1d1f6" d="M 151.5,31.5 C 151.5,32.5 151.5,33.5 151.5,34.5C 137.187,36.5671 123.02,39.2338 109,42.5C 108.667,42.1667 108.333,41.8333 108,41.5C 94.19,44.649 80.0233,47.649 65.5,50.5C 77.5072,44.5011 89.8405,39.0011 102.5,34C 104.544,33.5017 105.878,32.335 106.5,30.5C 117.806,26.1835 129.14,21.8502 140.5,17.5C 143.111,17.5559 145.278,18.5559 147,20.5C 148.799,24.07 150.299,27.7366 151.5,31.5 Z"/></g>
<g><path style="opacity:1" fill="#cacaf6" d="M 151.5,31.5 C 153.833,31.5 156.167,31.5 158.5,31.5C 159.528,32.7874 159.195,33.9541 157.5,35C 157.645,35.772 157.978,36.4387 158.5,37C 156.699,38.3868 156.032,39.8868 156.5,41.5C 155.284,40.9984 154.117,40.6651 153,40.5C 132.942,44.7069 112.608,49.0402 92,53.5C 90.4126,52.273 89.0793,52.6063 88,54.5C 84.7436,53.3068 81.4103,53.9735 78,56.5C 74.6328,56.3502 71.2995,56.3502 68,56.5C 59.4325,58.7481 50.7658,60.7481 42,62.5C 40.9701,62.1639 40.4701,61.4972 40.5,60.5C 42.4261,59.5139 44.4261,58.5139 46.5,57.5C 52.7682,54.9664 59.1015,52.6331 65.5,50.5C 80.0233,47.649 94.19,44.649 108,41.5C 108.333,41.8333 108.667,42.1667 109,42.5C 123.02,39.2338 137.187,36.5671 151.5,34.5C 151.5,33.5 151.5,32.5 151.5,31.5 Z"/></g>
<g><path style="opacity:1" fill="#c2c3f5" d="M 158.5,31.5 C 165.833,31.5 173.167,31.5 180.5,31.5C 179.395,37.2955 177.728,42.9621 175.5,48.5C 175.389,50.1086 175.722,51.7753 176.5,53.5C 170.5,51.8333 164.5,50.1667 158.5,48.5C 140.695,51.0788 123.028,54.4121 105.5,58.5C 80.97,62.6045 55.47,67.2711 29,72.5C 25.5948,71.6433 22.2614,71.9766 19,73.5C 18.805,72.1807 18.9717,70.8474 19.5,69.5C 26.3158,66.2637 33.3158,63.2637 40.5,60.5C 40.4701,61.4972 40.9701,62.1639 42,62.5C 50.7658,60.7481 59.4325,58.7481 68,56.5C 71.2995,56.3502 74.6328,56.3502 78,56.5C 81.4103,53.9735 84.7436,53.3068 88,54.5C 89.0793,52.6063 90.4126,52.273 92,53.5C 112.608,49.0402 132.942,44.7069 153,40.5C 154.117,40.6651 155.284,40.9984 156.5,41.5C 156.032,39.8868 156.699,38.3868 158.5,37C 157.978,36.4387 157.645,35.772 157.5,35C 159.195,33.9541 159.528,32.7874 158.5,31.5 Z"/></g>
<g><path style="opacity:1" fill="#b3b5f6" d="M 180.5,31.5 C 188.167,31.5 195.833,31.5 203.5,31.5C 202.293,37.1573 200.626,42.9906 198.5,49C 198.645,49.772 198.978,50.4387 199.5,51C 198.167,53.3333 196.833,55.6667 195.5,58C 196.479,59.7785 196.146,61.4452 194.5,63C 195.022,66.7385 194.355,70.4052 192.5,74C 192.833,74.3333 193.167,74.6667 193.5,75C 192.361,76.7804 191.361,78.6137 190.5,80.5C 186.716,72.2572 182.882,63.9238 179,55.5C 178.005,54.9341 177.172,54.2674 176.5,53.5C 175.722,51.7753 175.389,50.1086 175.5,48.5C 177.728,42.9621 179.395,37.2955 180.5,31.5 Z"/></g>
<g><path style="opacity:1" fill="#abadf6" d="M 203.5,31.5 C 207.833,31.5 212.167,31.5 216.5,31.5C 213.776,43.5532 210.442,55.7199 206.5,68C 206.833,69 207.167,70 207.5,71C 205.864,72.434 204.864,74.2674 204.5,76.5C 205.902,77.8425 205.569,78.6758 203.5,79C 203.833,79.3333 204.167,79.6667 204.5,80C 203.872,82.8003 202.872,85.467 201.5,88C 201.833,88.3333 202.167,88.6667 202.5,89C 201.083,91.9831 200.25,95.1498 200,98.5C 199.617,99.056 199.117,99.3893 198.5,99.5C 195.56,93.2863 192.893,86.9529 190.5,80.5C 191.361,78.6137 192.361,76.7804 193.5,75C 193.167,74.6667 192.833,74.3333 192.5,74C 194.355,70.4052 195.022,66.7385 194.5,63C 196.146,61.4452 196.479,59.7785 195.5,58C 196.833,55.6667 198.167,53.3333 199.5,51C 198.978,50.4387 198.645,49.772 198.5,49C 200.626,42.9906 202.293,37.1573 203.5,31.5 Z"/></g>
<g><path style="opacity:1" fill="#a5a7f6" d="M 216.5,31.5 C 220.167,31.5 223.833,31.5 227.5,31.5C 227.552,34.7354 226.552,37.902 224.5,41C 225.727,42.5874 225.394,43.9207 223.5,45C 223.5,47.3333 223.5,49.6667 223.5,52C 221.665,52.9277 221.332,54.0944 222.5,55.5C 221.179,60.4557 219.513,65.289 217.5,70C 217.957,70.414 218.291,70.914 218.5,71.5C 217.056,76.1077 215.39,80.6077 213.5,85C 213.944,86.5333 214.277,88.0333 214.5,89.5C 211.986,91.5571 210.653,93.8905 210.5,96.5C 210.833,97.1667 211.167,97.8333 211.5,98.5C 209.895,101.713 209.229,104.879 209.5,108C 208.833,108.333 208.167,108.667 207.5,109C 208.051,110.398 208.384,111.732 208.5,113C 206.893,114.049 206.227,115.549 206.5,117.5C 203.322,111.804 200.656,105.804 198.5,99.5C 199.117,99.3893 199.617,99.056 200,98.5C 200.25,95.1498 201.083,91.9831 202.5,89C 202.167,88.6667 201.833,88.3333 201.5,88C 202.872,85.467 203.872,82.8003 204.5,80C 204.167,79.6667 203.833,79.3333 203.5,79C 205.569,78.6758 205.902,77.8425 204.5,76.5C 204.864,74.2674 205.864,72.434 207.5,71C 207.167,70 206.833,69 206.5,68C 210.442,55.7199 213.776,43.5532 216.5,31.5 Z"/></g>
<g><path style="opacity:1" fill="#9ea2f6" d="M 227.5,31.5 C 231.5,31.5 235.5,31.5 239.5,31.5C 239.193,35.396 238.193,39.396 236.5,43.5C 237.586,46.7304 236.586,49.2304 233.5,51C 234.167,51.3333 234.833,51.6667 235.5,52C 235.374,54.9242 234.041,57.5908 231.5,60C 231.745,62.0886 231.745,64.0886 231.5,66C 229.109,67.3086 229.109,68.3086 231.5,69C 230.427,70.5944 229.427,72.0944 228.5,73.5C 228.623,75.3775 228.623,77.2109 228.5,79C 225.833,79.6667 225.833,80.3333 228.5,81C 227.167,81.6667 226.167,82.6667 225.5,84C 225.786,87.3803 225.786,90.7136 225.5,94C 223.288,95.7012 222.621,97.7012 223.5,100C 222.764,102.139 221.764,104.139 220.5,106C 220.5,108.333 220.5,110.667 220.5,113C 219.167,116 217.833,119 216.5,122C 216.833,122.333 217.167,122.667 217.5,123C 215.639,126.944 214.639,131.111 214.5,135.5C 211.322,129.804 208.656,123.804 206.5,117.5C 206.227,115.549 206.893,114.049 208.5,113C 208.384,111.732 208.051,110.398 207.5,109C 208.167,108.667 208.833,108.333 209.5,108C 209.229,104.879 209.895,101.713 211.5,98.5C 211.167,97.8333 210.833,97.1667 210.5,96.5C 210.653,93.8905 211.986,91.5571 214.5,89.5C 214.277,88.0333 213.944,86.5333 213.5,85C 215.39,80.6077 217.056,76.1077 218.5,71.5C 218.291,70.914 217.957,70.414 217.5,70C 219.513,65.289 221.179,60.4557 222.5,55.5C 221.332,54.0944 221.665,52.9277 223.5,52C 223.5,49.6667 223.5,47.3333 223.5,45C 225.394,43.9207 225.727,42.5874 224.5,41C 226.552,37.902 227.552,34.7354 227.5,31.5 Z"/></g>
<g><path style="opacity:1" fill="#989cf6" d="M 239.5,31.5 C 244.5,31.5 249.5,31.5 254.5,31.5C 253.843,37.0073 252.51,42.0073 250.5,46.5C 251.347,48.061 251.014,49.561 249.5,51C 249.833,51.3333 250.167,51.6667 250.5,52C 249.289,55.0953 247.956,58.0953 246.5,61C 247.703,64.8079 246.703,68.4746 243.5,72C 244.86,73.9376 244.527,75.6043 242.5,77C 242.5,79.6667 242.5,82.3333 242.5,85C 241.143,88.9084 239.476,92.9084 237.5,97C 237.255,98.9114 237.255,100.911 237.5,103C 235.342,104.312 235.009,105.978 236.5,108C 234.585,112.253 232.918,116.586 231.5,121C 231.833,121.333 232.167,121.667 232.5,122C 230.874,126.585 229.541,131.252 228.5,136C 228.833,136.333 229.167,136.667 229.5,137C 227.578,138.46 226.911,140.127 227.5,142C 227.045,144.312 226.045,146.312 224.5,148C 224.833,148.333 225.167,148.667 225.5,149C 223.715,151.456 223.048,153.956 223.5,156.5C 219.707,149.906 216.707,142.906 214.5,135.5C 214.639,131.111 215.639,126.944 217.5,123C 217.167,122.667 216.833,122.333 216.5,122C 217.833,119 219.167,116 220.5,113C 220.5,110.667 220.5,108.333 220.5,106C 221.764,104.139 222.764,102.139 223.5,100C 222.621,97.7012 223.288,95.7012 225.5,94C 225.786,90.7136 225.786,87.3803 225.5,84C 226.167,82.6667 227.167,81.6667 228.5,81C 225.833,80.3333 225.833,79.6667 228.5,79C 228.623,77.2109 228.623,75.3775 228.5,73.5C 229.427,72.0944 230.427,70.5944 231.5,69C 229.109,68.3086 229.109,67.3086 231.5,66C 231.745,64.0886 231.745,62.0886 231.5,60C 234.041,57.5908 235.374,54.9242 235.5,52C 234.833,51.6667 234.167,51.3333 233.5,51C 236.586,49.2304 237.586,46.7304 236.5,43.5C 238.193,39.396 239.193,35.396 239.5,31.5 Z"/></g>
<g><path style="opacity:1" fill="#9296f6" d="M 254.5,31.5 C 258.833,31.5 263.167,31.5 267.5,31.5C 263.999,33.8621 263.665,36.6955 266.5,40C 264.946,42.2235 263.946,44.7235 263.5,47.5C 264.902,48.8425 264.569,49.6758 262.5,50C 262.428,52.176 262.762,54.176 263.5,56C 261.716,58.6479 260.05,61.3145 258.5,64C 259.167,64.3333 259.833,64.6667 260.5,65C 257.706,67.2137 257.039,69.547 258.5,72C 257.078,76.5022 255.412,80.8355 253.5,85C 254.167,85.3333 254.833,85.6667 255.5,86C 252.706,88.2137 252.039,90.547 253.5,93C 248.765,106.449 245.265,119.949 243,133.5C 240.723,136.129 240.223,138.629 241.5,141C 239.233,143.728 238.566,146.728 239.5,150C 238.833,151.333 237.833,152.333 236.5,153C 236.666,157.7 235.666,162.367 233.5,167C 233.833,167.333 234.167,167.667 234.5,168C 233.308,169.912 232.308,171.912 231.5,174C 232.167,174.333 232.833,174.667 233.5,175C 232.978,177.337 231.645,179.67 229.5,182C 228.553,184.478 228.553,186.812 229.5,189C 227.568,192.942 225.901,196.942 224.5,201C 224.957,201.414 225.291,201.914 225.5,202.5C 224.395,206.761 223.061,210.927 221.5,215C 222.108,217.184 221.441,219.184 219.5,221C 220.446,223.857 220.446,226.857 219.5,230C 217.779,231.944 216.446,234.11 215.5,236.5C 211.5,236.5 207.5,236.5 203.5,236.5C 202.047,235.175 202.381,234.342 204.5,234C 204.167,233 203.833,232 203.5,231C 205.301,230.683 205.634,230.016 204.5,229C 205.639,225.917 206.972,222.917 208.5,220C 207.978,219.439 207.645,218.772 207.5,218C 209.057,214.269 210.39,210.103 211.5,205.5C 210.141,203.694 210.475,202.194 212.5,201C 211.366,199.984 211.699,199.317 213.5,199C 213.075,196.983 213.075,195.149 213.5,193.5C 214.025,192.808 214.692,192.308 215.5,192C 214.786,190.657 215.12,189.324 216.5,188C 215.833,187.667 215.167,187.333 214.5,187C 215.5,186 216.5,185 217.5,184C 216.833,183.667 216.167,183.333 215.5,183C 217.867,179.275 219.201,175.442 219.5,171.5C 221.355,170.31 223.188,168.977 225,167.5C 225.587,163.69 225.087,160.023 223.5,156.5C 223.048,153.956 223.715,151.456 225.5,149C 225.167,148.667 224.833,148.333 224.5,148C 226.045,146.312 227.045,144.312 227.5,142C 226.911,140.127 227.578,138.46 229.5,137C 229.167,136.667 228.833,136.333 228.5,136C 229.541,131.252 230.874,126.585 232.5,122C 232.167,121.667 231.833,121.333 231.5,121C 232.918,116.586 234.585,112.253 236.5,108C 235.009,105.978 235.342,104.312 237.5,103C 237.255,100.911 237.255,98.9114 237.5,97C 239.476,92.9084 241.143,88.9084 242.5,85C 242.5,82.3333 242.5,79.6667 242.5,77C 244.527,75.6043 244.86,73.9376 243.5,72C 246.703,68.4746 247.703,64.8079 246.5,61C 247.956,58.0953 249.289,55.0953 250.5,52C 250.167,51.6667 249.833,51.3333 249.5,51C 251.014,49.561 251.347,48.061 250.5,46.5C 252.51,42.0073 253.843,37.0073 254.5,31.5 Z"/></g>
<g><path style="opacity:1" fill="#8c91f6" d="M 281.5,31.5 C 281.014,33.8067 281.014,35.9734 281.5,38C 280.833,38.6667 280.167,39.3333 279.5,40C 282.08,43.5416 281.747,46.5416 278.5,49C 279,49.5 279.5,50 280,50.5C 281.388,49.4464 282.888,49.2797 284.5,50C 282.75,54.0844 279.75,56.7511 275.5,58C 275.5,59.6667 275.5,61.3333 275.5,63C 273.491,66.5238 271.824,70.1905 270.5,74C 271.214,75.3431 270.88,76.6764 269.5,78C 269.5,80 269.5,82 269.5,84C 268.022,89.3203 266.356,94.3203 264.5,99C 264.5,101 264.5,103 264.5,105C 263.377,106.044 262.044,106.71 260.5,107C 261.214,108.343 260.88,109.676 259.5,111C 260.833,111.667 261.833,112.667 262.5,114C 261.167,114.667 261.167,115.333 262.5,116C 260.368,116.918 259.701,118.251 260.5,120C 259.692,122.088 258.692,124.088 257.5,126C 258.458,127.147 258.125,128.147 256.5,129C 256.833,130 257.167,131 257.5,132C 255.835,136.423 254.169,140.757 252.5,145C 252.616,146.268 252.949,147.602 253.5,149C 251.311,149.677 250.978,150.844 252.5,152.5C 250.681,155.457 249.347,158.624 248.5,162C 249.167,162.333 249.833,162.667 250.5,163C 248.833,166 247.167,169 245.5,172C 247.891,172.691 247.891,173.691 245.5,175C 245.377,176.789 245.377,178.622 245.5,180.5C 243.122,181.929 241.788,183.762 241.5,186C 242.833,187 242.833,188 241.5,189C 242.357,189.689 243.023,190.522 243.5,191.5C 243.154,192.696 242.654,192.696 242,191.5C 241.383,192.449 241.549,193.282 242.5,194C 241.061,194.991 240.061,196.324 239.5,198C 239.568,200.983 239.568,203.983 239.5,207C 237.277,210.059 235.61,213.392 234.5,217C 234.461,218.245 234.795,219.578 235.5,221C 232.779,226.124 231.112,231.291 230.5,236.5C 225.5,236.5 220.5,236.5 215.5,236.5C 216.446,234.11 217.779,231.944 219.5,230C 220.446,226.857 220.446,223.857 219.5,221C 221.441,219.184 222.108,217.184 221.5,215C 223.061,210.927 224.395,206.761 225.5,202.5C 225.291,201.914 224.957,201.414 224.5,201C 225.901,196.942 227.568,192.942 229.5,189C 228.553,186.812 228.553,184.478 229.5,182C 231.645,179.67 232.978,177.337 233.5,175C 232.833,174.667 232.167,174.333 231.5,174C 232.308,171.912 233.308,169.912 234.5,168C 234.167,167.667 233.833,167.333 233.5,167C 235.666,162.367 236.666,157.7 236.5,153C 237.833,152.333 238.833,151.333 239.5,150C 238.566,146.728 239.233,143.728 241.5,141C 240.223,138.629 240.723,136.129 243,133.5C 245.265,119.949 248.765,106.449 253.5,93C 252.039,90.547 252.706,88.2137 255.5,86C 254.833,85.6667 254.167,85.3333 253.5,85C 255.412,80.8355 257.078,76.5022 258.5,72C 257.039,69.547 257.706,67.2137 260.5,65C 259.833,64.6667 259.167,64.3333 258.5,64C 260.05,61.3145 261.716,58.6479 263.5,56C 262.762,54.176 262.428,52.176 262.5,50C 264.569,49.6758 264.902,48.8425 263.5,47.5C 263.946,44.7235 264.946,42.2235 266.5,40C 263.665,36.6955 263.999,33.8621 267.5,31.5C 272.016,31.2908 276.683,31.2908 281.5,31.5 Z"/></g>
<g><path style="opacity:1" fill="#868cf6" d="M 281.5,31.5 C 286.167,31.5 290.833,31.5 295.5,31.5C 295.348,33.2424 295.348,35.0757 295.5,37C 293.991,38.6736 293.324,40.3403 293.5,42C 295.167,43 296.5,44.3333 297.5,46C 296.833,46.3333 296.167,46.6667 295.5,47C 297.207,47.1953 298.874,47.1953 300.5,47C 299.916,50.7849 297.916,54.1182 294.5,57C 295.672,58.8684 295.505,60.7017 294,62.5C 292.506,61.2528 291.006,61.2528 289.5,62.5C 287.833,65.2536 286.499,67.7536 285.5,70C 286.022,70.5613 286.355,71.228 286.5,72C 285.5,75 284.5,78 283.5,81C 284.678,83.8053 284.011,86.1387 281.5,88C 282.634,89.016 282.301,89.6827 280.5,90C 284.725,92.5462 284.392,93.8796 279.5,94C 282.001,95.4177 281.668,96.4177 278.5,97C 279.167,97.3333 279.833,97.6667 280.5,98C 279.526,100.287 278.193,102.287 276.5,104C 277.634,105.016 277.301,105.683 275.5,106C 278.994,107.75 279.161,109.584 276,111.5C 275.654,113.218 275.154,114.885 274.5,116.5C 275.902,117.842 275.569,118.676 273.5,119C 273.833,119.333 274.167,119.667 274.5,120C 272.443,123.036 271.776,126.202 272.5,129.5C 270.201,136.037 268.201,141.87 266.5,147C 267.678,149.805 267.011,152.139 264.5,154C 265.051,155.398 265.384,156.732 265.5,158C 263.837,161.618 262.17,165.285 260.5,169C 261.051,170.398 261.384,171.732 261.5,173C 260.833,173.333 260.167,173.667 259.5,174C 259.833,175 260.167,176 260.5,177C 259.207,181.797 257.54,186.464 255.5,191C 255.833,192 256.167,193 256.5,194C 253.434,196.33 252.767,198.83 254.5,201.5C 253.376,202.914 252.376,204.414 251.5,206C 254.167,206.667 254.167,207.333 251.5,208C 251.957,208.414 252.291,208.914 252.5,209.5C 250.797,212.647 249.464,215.98 248.5,219.5C 249.983,222.119 249.483,224.786 247,227.5C 246.047,230.432 245.547,233.432 245.5,236.5C 240.5,236.5 235.5,236.5 230.5,236.5C 231.112,231.291 232.779,226.124 235.5,221C 234.795,219.578 234.461,218.245 234.5,217C 235.61,213.392 237.277,210.059 239.5,207C 239.568,203.983 239.568,200.983 239.5,198C 240.061,196.324 241.061,194.991 242.5,194C 241.549,193.282 241.383,192.449 242,191.5C 242.654,192.696 243.154,192.696 243.5,191.5C 243.023,190.522 242.357,189.689 241.5,189C 242.833,188 242.833,187 241.5,186C 241.788,183.762 243.122,181.929 245.5,180.5C 245.377,178.622 245.377,176.789 245.5,175C 247.891,173.691 247.891,172.691 245.5,172C 247.167,169 248.833,166 250.5,163C 249.833,162.667 249.167,162.333 248.5,162C 249.347,158.624 250.681,155.457 252.5,152.5C 250.978,150.844 251.311,149.677 253.5,149C 252.949,147.602 252.616,146.268 252.5,145C 254.169,140.757 255.835,136.423 257.5,132C 257.167,131 256.833,130 256.5,129C 258.125,128.147 258.458,127.147 257.5,126C 258.692,124.088 259.692,122.088 260.5,120C 259.701,118.251 260.368,116.918 262.5,116C 261.167,115.333 261.167,114.667 262.5,114C 261.833,112.667 260.833,111.667 259.5,111C 260.88,109.676 261.214,108.343 260.5,107C 262.044,106.71 263.377,106.044 264.5,105C 264.5,103 264.5,101 264.5,99C 266.356,94.3203 268.022,89.3203 269.5,84C 269.5,82 269.5,80 269.5,78C 270.88,76.6764 271.214,75.3431 270.5,74C 271.824,70.1905 273.491,66.5238 275.5,63C 275.5,61.3333 275.5,59.6667 275.5,58C 279.75,56.7511 282.75,54.0844 284.5,50C 282.888,49.2797 281.388,49.4464 280,50.5C 279.5,50 279,49.5 278.5,49C 281.747,46.5416 282.08,43.5416 279.5,40C 280.167,39.3333 280.833,38.6667 281.5,38C 281.014,35.9734 281.014,33.8067 281.5,31.5 Z"/></g>
<g><path style="opacity:1" fill="#8086f6" d="M 295.5,31.5 C 301.5,31.5 307.5,31.5 313.5,31.5C 313.414,32.4959 313.748,33.3292 314.5,34C 313.572,34.3879 312.905,35.0546 312.5,36C 311.7,37.7883 311.366,39.455 311.5,41C 316.896,42.3672 317.896,45.3672 314.5,50C 316.797,51.1597 316.464,52.1597 313.5,53C 314.791,55.0902 314.124,56.4236 311.5,57C 312.167,57.3333 312.833,57.6667 313.5,58C 312.809,59.0674 312.309,60.2341 312,61.5C 310.68,61.799 309.18,61.9657 307.5,62C 305.281,63.8891 304.447,66.0558 305,68.5C 302.266,69.3617 302.099,70.195 304.5,71C 302.768,76.4579 300.768,81.7912 298.5,87C 298.905,87.9454 299.572,88.6121 300.5,89C 299.484,89.5194 298.818,90.3527 298.5,91.5C 297.819,97.3458 296.152,102.846 293.5,108C 293.905,108.945 294.572,109.612 295.5,110C 294.167,112.667 292.833,115.333 291.5,118C 291.833,118.333 292.167,118.667 292.5,119C 290.604,121.735 289.938,124.568 290.5,127.5C 288.126,131.577 287.126,135.744 287.5,140C 285.613,141.969 284.28,144.302 283.5,147C 286.167,147.667 286.167,148.333 283.5,149C 284.337,150.011 284.67,151.178 284.5,152.5C 283.448,152.351 282.448,152.517 281.5,153C 281.428,155.176 281.762,157.176 282.5,159C 279.456,159.359 279.122,160.026 281.5,161C 280.545,162.717 279.545,164.384 278.5,166C 279.167,166.333 279.833,166.667 280.5,167C 278.977,169.434 277.977,172.101 277.5,175C 278.634,176.016 278.301,176.683 276.5,177C 275.761,178.765 275.761,180.765 276.5,183C 274.217,185.56 272.884,188.227 272.5,191C 275.544,191.359 275.878,192.026 273.5,193C 273.833,193.333 274.167,193.667 274.5,194C 271.581,196.334 270.581,199.167 271.5,202.5C 270.5,204.5 269.5,206.5 268.5,208.5C 269.229,210.595 268.563,212.428 266.5,214C 266.957,214.414 267.291,214.914 267.5,215.5C 266.65,217.621 265.65,219.788 264.5,222C 264.937,224.449 264.937,226.783 264.5,229C 262.342,230.312 262.009,231.978 263.5,234C 262.619,234.708 261.953,235.542 261.5,236.5C 256.167,236.5 250.833,236.5 245.5,236.5C 245.547,233.432 246.047,230.432 247,227.5C 249.483,224.786 249.983,222.119 248.5,219.5C 249.464,215.98 250.797,212.647 252.5,209.5C 252.291,208.914 251.957,208.414 251.5,208C 254.167,207.333 254.167,206.667 251.5,206C 252.376,204.414 253.376,202.914 254.5,201.5C 252.767,198.83 253.434,196.33 256.5,194C 256.167,193 255.833,192 255.5,191C 257.54,186.464 259.207,181.797 260.5,177C 260.167,176 259.833,175 259.5,174C 260.167,173.667 260.833,173.333 261.5,173C 261.384,171.732 261.051,170.398 260.5,169C 262.17,165.285 263.837,161.618 265.5,158C 265.384,156.732 265.051,155.398 264.5,154C 267.011,152.139 267.678,149.805 266.5,147C 268.201,141.87 270.201,136.037 272.5,129.5C 271.776,126.202 272.443,123.036 274.5,120C 274.167,119.667 273.833,119.333 273.5,119C 275.569,118.676 275.902,117.842 274.5,116.5C 275.154,114.885 275.654,113.218 276,111.5C 279.161,109.584 278.994,107.75 275.5,106C 277.301,105.683 277.634,105.016 276.5,104C 278.193,102.287 279.526,100.287 280.5,98C 279.833,97.6667 279.167,97.3333 278.5,97C 281.668,96.4177 282.001,95.4177 279.5,94C 284.392,93.8796 284.725,92.5462 280.5,90C 282.301,89.6827 282.634,89.016 281.5,88C 284.011,86.1387 284.678,83.8053 283.5,81C 284.5,78 285.5,75 286.5,72C 286.355,71.228 286.022,70.5613 285.5,70C 286.499,67.7536 287.833,65.2536 289.5,62.5C 291.006,61.2528 292.506,61.2528 294,62.5C 295.505,60.7017 295.672,58.8684 294.5,57C 297.916,54.1182 299.916,50.7849 300.5,47C 298.874,47.1953 297.207,47.1953 295.5,47C 296.167,46.6667 296.833,46.3333 297.5,46C 296.5,44.3333 295.167,43 293.5,42C 293.324,40.3403 293.991,38.6736 295.5,37C 295.348,35.0757 295.348,33.2424 295.5,31.5 Z"/></g>
<g><path style="opacity:1" fill="#7980f6" d="M 313.5,31.5 C 320.167,31.5 326.833,31.5 333.5,31.5C 332.704,34.5559 331.704,37.5559 330.5,40.5C 330.608,41.4419 330.941,42.2753 331.5,43C 335.23,42.5118 335.564,43.8452 332.5,47C 333.253,48.487 334.086,48.6537 335,47.5C 336.934,49.4188 336.767,50.9188 334.5,52C 335.167,52.3333 335.833,52.6667 336.5,53C 335.166,55.0871 333.333,56.5871 331,57.5C 330.085,56.6721 329.419,55.6721 329,54.5C 326.693,58.3177 324.859,62.3177 323.5,66.5C 324.167,66.8333 324.833,67.1667 325.5,67.5C 324.017,71.1435 322.351,74.6435 320.5,78C 321.167,78.3333 321.833,78.6667 322.5,79C 321.167,80 321.167,81 322.5,82C 319.833,82.6667 319.833,83.3333 322.5,84C 320.606,85.0793 320.273,86.4126 321.5,88C 320.624,89.5848 319.291,90.5848 317.5,91C 317.501,92.3988 317.835,93.8988 318.5,95.5C 318.032,97.1338 317.032,98.3005 315.5,99C 316.167,99.3333 316.833,99.6667 317.5,100C 317.214,102.816 315.88,105.316 313.5,107.5C 313.709,108.086 314.043,108.586 314.5,109C 312.059,116.372 309.726,123.705 307.5,131C 307.493,132.583 307.826,134.249 308.5,136C 306.807,137.713 305.474,139.713 304.5,142C 305.167,142.333 305.833,142.667 306.5,143C 305.809,144.067 305.309,145.234 305,146.5C 304.346,145.304 303.846,145.304 303.5,146.5C 303.977,147.478 304.643,148.311 305.5,149C 303.699,149.317 303.366,149.984 304.5,151C 302.578,152.46 301.911,154.127 302.5,156C 301.258,159.059 299.925,162.059 298.5,165C 298.5,167.667 298.5,170.333 298.5,173C 296.854,174.555 296.521,176.221 297.5,178C 295.833,181 294.167,184 292.5,187C 293.167,187.333 293.833,187.667 294.5,188C 293.643,188.689 292.977,189.522 292.5,190.5C 292.413,192.963 292.413,195.463 292.5,198C 291.364,199.53 290.364,200.863 289.5,202C 288.978,204.186 288.978,206.519 289.5,209C 286.955,213.751 285.289,218.585 284.5,223.5C 284.292,227.955 282.959,232.288 280.5,236.5C 274.167,236.5 267.833,236.5 261.5,236.5C 261.953,235.542 262.619,234.708 263.5,234C 262.009,231.978 262.342,230.312 264.5,229C 264.937,226.783 264.937,224.449 264.5,222C 265.65,219.788 266.65,217.621 267.5,215.5C 267.291,214.914 266.957,214.414 266.5,214C 268.563,212.428 269.229,210.595 268.5,208.5C 269.5,206.5 270.5,204.5 271.5,202.5C 270.581,199.167 271.581,196.334 274.5,194C 274.167,193.667 273.833,193.333 273.5,193C 275.878,192.026 275.544,191.359 272.5,191C 272.884,188.227 274.217,185.56 276.5,183C 275.761,180.765 275.761,178.765 276.5,177C 278.301,176.683 278.634,176.016 277.5,175C 277.977,172.101 278.977,169.434 280.5,167C 279.833,166.667 279.167,166.333 278.5,166C 279.545,164.384 280.545,162.717 281.5,161C 279.122,160.026 279.456,159.359 282.5,159C 281.762,157.176 281.428,155.176 281.5,153C 282.448,152.517 283.448,152.351 284.5,152.5C 284.67,151.178 284.337,150.011 283.5,149C 286.167,148.333 286.167,147.667 283.5,147C 284.28,144.302 285.613,141.969 287.5,140C 287.126,135.744 288.126,131.577 290.5,127.5C 289.938,124.568 290.604,121.735 292.5,119C 292.167,118.667 291.833,118.333 291.5,118C 292.833,115.333 294.167,112.667 295.5,110C 294.572,109.612 293.905,108.945 293.5,108C 296.152,102.846 297.819,97.3458 298.5,91.5C 298.818,90.3527 299.484,89.5194 300.5,89C 299.572,88.6121 298.905,87.9454 298.5,87C 300.768,81.7912 302.768,76.4579 304.5,71C 302.099,70.195 302.266,69.3617 305,68.5C 304.447,66.0558 305.281,63.8891 307.5,62C 309.18,61.9657 310.68,61.799 312,61.5C 312.309,60.2341 312.809,59.0674 313.5,58C 312.833,57.6667 312.167,57.3333 311.5,57C 314.124,56.4236 314.791,55.0902 313.5,53C 316.464,52.1597 316.797,51.1597 314.5,50C 317.896,45.3672 316.896,42.3672 311.5,41C 311.366,39.455 311.7,37.7883 312.5,36C 312.905,35.0546 313.572,34.3879 314.5,34C 313.748,33.3292 313.414,32.4959 313.5,31.5 Z"/></g>
<g><path style="opacity:1" fill="#737af6" d="M 333.5,31.5 C 339.5,31.5 345.5,31.5 351.5,31.5C 351.953,32.4584 352.619,33.2917 353.5,34C 352.833,34.3333 352.167,34.6667 351.5,35C 352.573,36.2504 352.573,37.5838 351.5,39C 351.759,40.2613 352.426,41.2613 353.5,42C 352.939,43.5655 353.606,44.8989 355.5,46C 355.142,48.2478 354.475,50.7478 353.5,53.5C 354.246,54.7362 354.579,56.0695 354.5,57.5C 353.448,57.3505 352.448,57.5172 351.5,58C 349.659,60.517 347.326,62.517 344.5,64C 344.5,66 344.5,68 344.5,70C 341.237,70.8695 340.904,72.2028 343.5,74C 342.359,74.7412 342.359,75.5745 343.5,76.5C 342.068,76.5846 340.735,77.5846 339.5,79.5C 339.977,80.4776 340.643,81.3109 341.5,82C 340.426,82.7387 339.759,83.7387 339.5,85C 340.205,86.4219 340.539,87.7553 340.5,89C 339.252,91.6696 337.752,93.5029 336,94.5C 335.316,95.7839 335.483,96.9505 336.5,98C 335.426,98.7387 334.759,99.7387 334.5,101C 335.205,102.422 335.539,103.755 335.5,105C 334.426,107.181 333.426,109.348 332.5,111.5C 333.938,113.345 333.604,114.511 331.5,115C 332.458,116.147 332.125,117.147 330.5,118C 332.013,120.454 331.346,122.121 328.5,123C 330.545,125.345 330.212,127.679 327.5,130C 327.833,131 328.167,132 328.5,133C 327.687,134.314 326.687,135.481 325.5,136.5C 325.5,138.5 325.5,140.5 325.5,142.5C 325.154,143.696 324.654,143.696 324,142.5C 323.764,144.764 323.264,146.931 322.5,149C 322.833,149.333 323.167,149.667 323.5,150C 321.138,153.599 320.471,157.432 321.5,161.5C 320.167,163.167 318.833,164.833 317.5,166.5C 318.025,167.192 318.692,167.692 319.5,168C 316.777,171.171 315.777,174.671 316.5,178.5C 313.972,179.517 313.972,180.684 316.5,182C 314.699,182.317 314.366,182.984 315.5,184C 313.392,186.307 312.059,188.64 311.5,191C 312.914,195.188 311.914,199.188 308.5,203C 308.665,204.117 308.998,205.284 309.5,206.5C 306.472,209.378 305.805,212.378 307.5,215.5C 306.833,215.833 306.167,216.167 305.5,216.5C 306.545,219.625 305.878,222.459 303.5,225C 303.616,226.268 303.949,227.602 304.5,229C 303.5,230 302.5,231 301.5,232C 302.38,233.356 302.714,234.856 302.5,236.5C 295.167,236.5 287.833,236.5 280.5,236.5C 282.959,232.288 284.292,227.955 284.5,223.5C 285.289,218.585 286.955,213.751 289.5,209C 288.978,206.519 288.978,204.186 289.5,202C 290.364,200.863 291.364,199.53 292.5,198C 292.413,195.463 292.413,192.963 292.5,190.5C 292.977,189.522 293.643,188.689 294.5,188C 293.833,187.667 293.167,187.333 292.5,187C 294.167,184 295.833,181 297.5,178C 296.521,176.221 296.854,174.555 298.5,173C 298.5,170.333 298.5,167.667 298.5,165C 299.925,162.059 301.258,159.059 302.5,156C 301.911,154.127 302.578,152.46 304.5,151C 303.366,149.984 303.699,149.317 305.5,149C 304.643,148.311 303.977,147.478 303.5,146.5C 303.846,145.304 304.346,145.304 305,146.5C 305.309,145.234 305.809,144.067 306.5,143C 305.833,142.667 305.167,142.333 304.5,142C 305.474,139.713 306.807,137.713 308.5,136C 307.826,134.249 307.493,132.583 307.5,131C 309.726,123.705 312.059,116.372 314.5,109C 314.043,108.586 313.709,108.086 313.5,107.5C 315.88,105.316 317.214,102.816 317.5,100C 316.833,99.6667 316.167,99.3333 315.5,99C 317.032,98.3005 318.032,97.1338 318.5,95.5C 317.835,93.8988 317.501,92.3988 317.5,91C 319.291,90.5848 320.624,89.5848 321.5,88C 320.273,86.4126 320.606,85.0793 322.5,84C 319.833,83.3333 319.833,82.6667 322.5,82C 321.167,81 321.167,80 322.5,79C 321.833,78.6667 321.167,78.3333 320.5,78C 322.351,74.6435 324.017,71.1435 325.5,67.5C 324.833,67.1667 324.167,66.8333 323.5,66.5C 324.859,62.3177 326.693,58.3177 329,54.5C 329.419,55.6721 330.085,56.6721 331,57.5C 333.333,56.5871 335.166,55.0871 336.5,53C 335.833,52.6667 335.167,52.3333 334.5,52C 336.767,50.9188 336.934,49.4188 335,47.5C 334.086,48.6537 333.253,48.487 332.5,47C 335.564,43.8452 335.23,42.5118 331.5,43C 330.941,42.2753 330.608,41.4419 330.5,40.5C 331.704,37.5559 332.704,34.5559 333.5,31.5 Z"/></g>
<g><path style="opacity:1" fill="#6d75f6" d="M 351.5,31.5 C 359.5,31.5 367.5,31.5 375.5,31.5C 374.83,34.3377 373.496,36.8377 371.5,39C 374.389,40.1199 376.056,41.7865 376.5,44C 373.633,45.4712 372.633,47.6379 373.5,50.5C 372.965,52.2705 372.131,52.6039 371,51.5C 370.383,52.4491 370.549,53.2825 371.5,54C 370.833,54.3333 370.167,54.6667 369.5,55C 370.938,56.2408 372.438,56.7408 374,56.5C 375.681,58.5182 376.514,60.5182 376.5,62.5C 375.504,62.4142 374.671,62.7476 374,63.5C 372.474,61.4152 370.64,61.4152 368.5,63.5C 367.855,64.7321 367.689,66.0654 368,67.5C 367.333,68.8333 366.667,68.8333 366,67.5C 365.383,68.4491 365.549,69.2825 366.5,70C 364.203,71.1597 364.536,72.1597 367.5,73C 366.167,73.6667 366.167,74.3333 367.5,75C 364.735,76.0971 363.069,78.0971 362.5,81C 362.977,83.5254 362.977,85.8587 362.5,88C 361.364,91.2691 359.698,94.2691 357.5,97C 358.991,99.0217 358.658,100.688 356.5,102C 356.743,104.545 356.743,107.045 356.5,109.5C 356.032,111.134 355.032,112.3 353.5,113C 354.833,115.333 354.833,117.667 353.5,120C 351.875,120.853 351.542,121.853 352.5,123C 351.672,123.915 350.672,124.581 349.5,125C 349.957,125.414 350.291,125.914 350.5,126.5C 348.941,128.683 348.274,130.849 348.5,133C 349.167,133.333 349.833,133.667 350.5,134C 349.932,135.652 348.599,137.318 346.5,139C 347.86,140.938 347.527,142.604 345.5,144C 346.167,144.333 346.833,144.667 347.5,145C 345.734,147.096 344.401,149.429 343.5,152C 346.167,152.667 346.167,153.333 343.5,154C 343.377,156.456 343.377,158.956 343.5,161.5C 342.737,164.249 341.403,167.083 339.5,170C 340.051,171.398 340.384,172.732 340.5,174C 339.376,174.249 338.376,174.749 337.5,175.5C 336.48,177.76 336.48,179.926 337.5,182C 336.313,183.019 335.313,184.186 334.5,185.5C 335.441,185.489 336.108,185.989 336.5,187C 336.095,187.945 335.428,188.612 334.5,189C 334.682,191.653 335.015,194.32 335.5,197C 334.428,198.284 333.095,198.617 331.5,198C 332.991,200.022 332.658,201.688 330.5,203C 331.815,204.395 331.481,205.395 329.5,206C 330.167,206.667 330.833,207.333 331.5,208C 330.52,211.56 329.187,214.727 327.5,217.5C 328.223,221.329 327.223,224.829 324.5,228C 325.641,228.741 325.641,229.575 324.5,230.5C 325.025,231.192 325.692,231.692 326.5,232C 324.11,233.11 323.11,234.61 323.5,236.5C 316.5,236.5 309.5,236.5 302.5,236.5C 302.714,234.856 302.38,233.356 301.5,232C 302.5,231 303.5,230 304.5,229C 303.949,227.602 303.616,226.268 303.5,225C 305.878,222.459 306.545,219.625 305.5,216.5C 306.167,216.167 306.833,215.833 307.5,215.5C 305.805,212.378 306.472,209.378 309.5,206.5C 308.998,205.284 308.665,204.117 308.5,203C 311.914,199.188 312.914,195.188 311.5,191C 312.059,188.64 313.392,186.307 315.5,184C 314.366,182.984 314.699,182.317 316.5,182C 313.972,180.684 313.972,179.517 316.5,178.5C 315.777,174.671 316.777,171.171 319.5,168C 318.692,167.692 318.025,167.192 317.5,166.5C 318.833,164.833 320.167,163.167 321.5,161.5C 320.471,157.432 321.138,153.599 323.5,150C 323.167,149.667 322.833,149.333 322.5,149C 323.264,146.931 323.764,144.764 324,142.5C 324.654,143.696 325.154,143.696 325.5,142.5C 325.5,140.5 325.5,138.5 325.5,136.5C 326.687,135.481 327.687,134.314 328.5,133C 328.167,132 327.833,131 327.5,130C 330.212,127.679 330.545,125.345 328.5,123C 331.346,122.121 332.013,120.454 330.5,118C 332.125,117.147 332.458,116.147 331.5,115C 333.604,114.511 333.938,113.345 332.5,111.5C 333.426,109.348 334.426,107.181 335.5,105C 335.539,103.755 335.205,102.422 334.5,101C 334.759,99.7387 335.426,98.7387 336.5,98C 335.483,96.9505 335.316,95.7839 336,94.5C 337.752,93.5029 339.252,91.6696 340.5,89C 340.539,87.7553 340.205,86.4219 339.5,85C 339.759,83.7387 340.426,82.7387 341.5,82C 340.643,81.3109 339.977,80.4776 339.5,79.5C 340.735,77.5846 342.068,76.5846 343.5,76.5C 342.359,75.5745 342.359,74.7412 343.5,74C 340.904,72.2028 341.237,70.8695 344.5,70C 344.5,68 344.5,66 344.5,64C 347.326,62.517 349.659,60.517 351.5,58C 352.448,57.5172 353.448,57.3505 354.5,57.5C 354.579,56.0695 354.246,54.7362 353.5,53.5C 354.475,50.7478 355.142,48.2478 355.5,46C 353.606,44.8989 352.939,43.5655 353.5,42C 352.426,41.2613 351.759,40.2613 351.5,39C 352.573,37.5838 352.573,36.2504 351.5,35C 352.167,34.6667 352.833,34.3333 353.5,34C 352.619,33.2917 351.953,32.4584 351.5,31.5 Z"/></g>
<g><path style="opacity:0.329" fill="#656ef6" d="M 375.5,31.5 C 386.167,31.5 396.833,31.5 407.5,31.5C 407.5,32.5 407.5,33.5 407.5,34.5C 406.167,35.1667 406.167,35.8333 407.5,36.5C 407.5,36.8333 407.5,37.1667 407.5,37.5C 406.167,38.5 406.167,39.5 407.5,40.5C 407.5,41.1667 407.5,41.8333 407.5,42.5C 406.167,43.1667 406.167,43.8333 407.5,44.5C 407.5,47.1667 407.5,49.8333 407.5,52.5C 406.167,52.8333 406.167,53.1667 407.5,53.5C 407.5,53.8333 407.5,54.1667 407.5,54.5C 405.694,55.0241 404.028,55.6908 402.5,56.5C 401.167,56.8333 401.167,57.1667 402.5,57.5C 402.5,57.8333 402.5,58.1667 402.5,58.5C 402.636,61.0198 402.302,63.6865 401.5,66.5C 400.833,66.5 400.167,66.5 399.5,66.5C 396.902,67.4722 396.902,68.4722 399.5,69.5C 399.5,70.1667 399.5,70.8333 399.5,71.5C 398.662,71.8417 398.328,72.5084 398.5,73.5C 397.167,73.8333 397.167,74.1667 398.5,74.5C 398.5,75.8333 398.5,77.1667 398.5,78.5C 397.167,78.8333 397.167,79.1667 398.5,79.5C 398.762,80.9778 398.429,82.3112 397.5,83.5C 396.914,83.2907 396.414,82.9574 396,82.5C 395.749,84.433 395.249,86.2663 394.5,88C 394.957,88.414 395.291,88.914 395.5,89.5C 394.757,90.1818 394.091,90.8485 393.5,91.5C 392.167,91.8333 392.167,92.1667 393.5,92.5C 393.5,93.1667 393.5,93.8333 393.5,94.5C 392.167,94.8333 392.167,95.1667 393.5,95.5C 393.762,96.9778 393.429,98.3112 392.5,99.5C 391.914,99.2907 391.414,98.9574 391,98.5C 390.855,103.395 390.022,108.062 388.5,112.5C 387.167,112.833 387.167,113.167 388.5,113.5C 389.679,115.507 389.179,115.84 387,114.5C 386.235,116.066 386.402,117.399 387.5,118.5C 387.148,121.079 385.814,122.913 383.5,124C 384.527,124.513 385.527,125.013 386.5,125.5C 387.85,126.65 387.684,127.317 386,127.5C 385.055,127.095 384.388,126.428 384,125.5C 383.376,127.464 383.876,129.131 385.5,130.5C 383.838,131.327 382.505,132.493 381.5,134C 382.044,134.717 382.711,135.217 383.5,135.5C 382.449,136.222 381.782,137.222 381.5,138.5C 380.662,138.842 380.328,139.508 380.5,140.5C 379.601,141.994 379.935,143.494 381.5,145C 380.833,145.667 380.167,146.333 379.5,147C 380.598,147.77 380.598,148.603 379.5,149.5C 378.751,150.531 378.085,151.698 377.5,153C 378.044,153.717 378.711,154.217 379.5,154.5C 377.461,155.911 376.461,157.911 376.5,160.5C 375.761,160.369 375.094,160.536 374.5,161C 373.939,162.566 374.606,163.899 376.5,165C 375.584,165.278 374.918,165.778 374.5,166.5C 373.167,167.833 373.167,169.167 374.5,170.5C 374.5,170.833 374.5,171.167 374.5,171.5C 371.592,172.159 371.258,172.993 373.5,174C 369.19,175.503 368.856,177.17 372.5,179C 372.347,180.209 372.014,181.375 371.5,182.5C 371.167,181.167 370.833,181.167 370.5,182.5C 369.903,182.735 369.57,183.235 369.5,184C 370.272,185.221 371.272,186.221 372.5,187C 371.956,187.717 371.289,188.217 370.5,188.5C 370.167,187.167 369.833,187.167 369.5,188.5C 368.833,188.5 368.5,188.833 368.5,189.5C 367.167,189.833 367.167,190.167 368.5,190.5C 368.082,191.222 367.416,191.722 366.5,192C 370.032,192.292 370.365,193.458 367.5,195.5C 365.103,197.456 365.103,199.29 367.5,201C 366.78,203.491 366.113,205.991 365.5,208.5C 364.715,210.374 364.048,212.374 363.5,214.5C 362.005,214.415 361.005,215.081 360.5,216.5C 361.853,217.524 362.52,218.857 362.5,220.5C 361.167,220.833 361.167,221.167 362.5,221.5C 362.5,221.833 362.5,222.167 362.5,222.5C 361.394,223.149 360.394,223.483 359.5,223.5C 360.246,224.736 360.579,226.07 360.5,227.5C 360.167,227.5 359.833,227.5 359.5,227.5C 359.5,227.833 359.5,228.167 359.5,228.5C 358.711,228.783 358.044,229.283 357.5,230C 358.171,230.986 358.171,232.153 357.5,233.5C 356.975,234.728 355.642,235.562 353.5,236C 347.175,236.5 340.842,236.666 334.5,236.5C 334.631,235.761 334.464,235.094 334,234.5C 333.346,235.696 332.846,235.696 332.5,234.5C 334.778,233.785 336.111,232.618 336.5,231C 335.5,230 334.5,229 333.5,228C 334.583,226.471 335.583,224.971 336.5,223.5C 335.353,221.415 336.02,219.915 338.5,219C 338.167,217.333 337.833,215.667 337.5,214C 338.386,211.488 339.72,208.821 341.5,206C 338.833,205.333 338.833,204.667 341.5,204C 341.032,202.178 340.699,200.011 340.5,197.5C 341.552,197.649 342.552,197.483 343.5,197C 343.167,196.667 342.833,196.333 342.5,196C 343.308,195.692 343.975,195.192 344.5,194.5C 345.833,192.167 345.833,189.833 344.5,187.5C 344.977,186.522 345.643,185.689 346.5,185C 344.291,184.043 344.457,182.876 347,181.5C 346.302,179.236 346.802,177.403 348.5,176C 347.366,174.984 347.699,174.317 349.5,174C 348.833,173.333 348.167,172.667 347.5,172C 349.608,169.693 350.941,167.36 351.5,165C 351.279,163.201 350.946,161.368 350.5,159.5C 354.361,158.402 354.361,157.569 350.5,157C 352.592,156.047 352.925,154.714 351.5,153C 352.614,151.43 353.947,150.097 355.5,149C 352.668,147.092 353.001,146.259 356.5,146.5C 356.297,144.61 356.963,143.11 358.5,142C 357.833,141.333 357.167,140.667 356.5,140C 358.025,137.397 359.025,134.897 359.5,132.5C 359.291,131.914 358.957,131.414 358.5,131C 360.608,128.693 361.941,126.36 362.5,124C 361.409,121.936 361.242,119.769 362,117.5C 362.423,118.956 363.256,119.456 364.5,119C 363.833,117.667 362.833,116.667 361.5,116C 362.5,115 363.5,114 364.5,113C 364.112,111.192 364.112,109.525 364.5,108C 365.308,107.692 365.975,107.192 366.5,106.5C 365.289,105.28 365.289,104.113 366.5,103C 363.833,102.333 363.833,101.667 366.5,101C 365.315,98.2132 365.982,95.8798 368.5,94C 368.167,93.6667 367.833,93.3333 367.5,93C 369.558,91.5104 370.891,89.5104 371.5,87C 368.833,86.3333 368.833,85.6667 371.5,85C 370.315,82.2132 370.982,79.8798 373.5,78C 372.5,75.9093 373.167,74.2426 375.5,73C 374.62,71.6439 374.286,70.1439 374.5,68.5C 379.22,68.7746 379.554,67.9412 375.5,66C 376.337,64.9887 376.67,63.8221 376.5,62.5C 376.514,60.5182 375.681,58.5182 374,56.5C 372.438,56.7408 370.938,56.2408 369.5,55C 370.167,54.6667 370.833,54.3333 371.5,54C 370.549,53.2825 370.383,52.4491 371,51.5C 372.131,52.6039 372.965,52.2705 373.5,50.5C 372.633,47.6379 373.633,45.4712 376.5,44C 376.056,41.7865 374.389,40.1199 371.5,39C 373.496,36.8377 374.83,34.3377 375.5,31.5 Z M 399.5,66.5 C 397.025,66.2533 397.025,65.5866 399.5,64.5C 400.463,64.9698 400.463,65.6365 399.5,66.5 Z M 367.5,195.5 C 366.711,195.217 366.044,194.717 365.5,194C 366.816,193.472 367.483,193.972 367.5,195.5 Z M 364.5,204.5 C 365.773,205.077 365.773,205.743 364.5,206.5C 363.537,206.03 363.537,205.363 364.5,204.5 Z M 359.5,227.5 C 356.999,227.489 356.832,226.822 359,225.5C 359.464,226.094 359.631,226.761 359.5,227.5 Z"/></g>
<g><path style="opacity:1" fill="#bcbef5" d="M 158.5,48.5 C 159.5,50.5 160.5,52.5 161.5,54.5C 144.412,56.7411 127.245,60.0745 110,64.5C 109.586,64.0426 109.086,63.7093 108.5,63.5C 77.3579,70.5622 46.0246,76.3956 14.5,81C 15.8627,78.8707 15.5294,78.3707 13.5,79.5C 12.5481,77.9547 12.2148,76.288 12.5,74.5C 13.8331,71.6472 16.1665,69.9805 19.5,69.5C 18.9717,70.8474 18.805,72.1807 19,73.5C 22.2614,71.9766 25.5948,71.6433 29,72.5C 55.47,67.2711 80.97,62.6045 105.5,58.5C 123.028,54.4121 140.695,51.0788 158.5,48.5 Z"/></g>
<g><path style="opacity:1" fill="#b7b9f5" d="M 161.5,54.5 C 161.833,55.8333 162.167,57.1667 162.5,58.5C 121.032,66.2173 79.5316,73.884 38,81.5C 30.5925,83.4179 22.7592,84.7512 14.5,85.5C 11.7712,82.1221 11.1046,78.4554 12.5,74.5C 12.2148,76.288 12.5481,77.9547 13.5,79.5C 15.5294,78.3707 15.8627,78.8707 14.5,81C 46.0246,76.3956 77.3579,70.5622 108.5,63.5C 109.086,63.7093 109.586,64.0426 110,64.5C 127.245,60.0745 144.412,56.7411 161.5,54.5 Z"/></g>
<g><path style="opacity:0.02" fill="#646df6" d="M 402.5,56.5 C 403.833,57.1667 403.833,57.1667 402.5,56.5 Z" stroke-width="0"/></g>
<g><path style="opacity:0.02" fill="#646df6" d="M 407.5,56.5 C 407.5,57.1667 407.5,57.8333 407.5,58.5C 403.714,57.3047 403.714,56.638 407.5,56.5 Z"/></g>
<g><path style="opacity:0.02" fill="#646df6" d="M 402.5,58.5 C 403.525,58.8966 403.692,59.5632 403,60.5C 402.536,59.9056 402.369,59.2389 402.5,58.5 Z"/></g>
<g><path style="opacity:0.02" fill="#646df6" d="M 404.5,58.5 C 405.833,59.1667 405.833,59.1667 404.5,58.5 Z"/></g>
<g><path style="opacity:1" fill="#b1b4f6" d="M 162.5,58.5 C 163.87,60.2504 164.87,62.2504 165.5,64.5C 116.118,74.7169 66.785,84.0503 17.5,92.5C 16.2638,90.351 15.2638,88.0177 14.5,85.5C 22.7592,84.7512 30.5925,83.4179 38,81.5C 79.5316,73.884 121.032,66.2173 162.5,58.5 Z"/></g>
<g><path style="opacity:0.945" fill="#6971f6" d="M 376.5,62.5 C 376.67,63.8221 376.337,64.9887 375.5,66C 379.554,67.9412 379.22,68.7746 374.5,68.5C 374.286,70.1439 374.62,71.6439 375.5,73C 373.167,74.2426 372.5,75.9093 373.5,78C 370.982,79.8798 370.315,82.2132 371.5,85C 368.833,85.6667 368.833,86.3333 371.5,87C 370.891,89.5104 369.558,91.5104 367.5,93C 367.833,93.3333 368.167,93.6667 368.5,94C 365.982,95.8798 365.315,98.2132 366.5,101C 363.833,101.667 363.833,102.333 366.5,103C 365.289,104.113 365.289,105.28 366.5,106.5C 365.975,107.192 365.308,107.692 364.5,108C 364.112,109.525 364.112,111.192 364.5,113C 363.5,114 362.5,115 361.5,116C 362.833,116.667 363.833,117.667 364.5,119C 363.256,119.456 362.423,118.956 362,117.5C 361.242,119.769 361.409,121.936 362.5,124C 361.941,126.36 360.608,128.693 358.5,131C 358.957,131.414 359.291,131.914 359.5,132.5C 359.025,134.897 358.025,137.397 356.5,140C 357.167,140.667 357.833,141.333 358.5,142C 356.963,143.11 356.297,144.61 356.5,146.5C 353.001,146.259 352.668,147.092 355.5,149C 353.947,150.097 352.614,151.43 351.5,153C 352.925,154.714 352.592,156.047 350.5,157C 354.361,157.569 354.361,158.402 350.5,159.5C 350.946,161.368 351.279,163.201 351.5,165C 350.941,167.36 349.608,169.693 347.5,172C 348.167,172.667 348.833,173.333 349.5,174C 347.699,174.317 347.366,174.984 348.5,176C 346.802,177.403 346.302,179.236 347,181.5C 344.457,182.876 344.291,184.043 346.5,185C 345.643,185.689 344.977,186.522 344.5,187.5C 345.833,189.833 345.833,192.167 344.5,194.5C 343.975,195.192 343.308,195.692 342.5,196C 342.833,196.333 343.167,196.667 343.5,197C 342.552,197.483 341.552,197.649 340.5,197.5C 340.699,200.011 341.032,202.178 341.5,204C 338.833,204.667 338.833,205.333 341.5,206C 339.72,208.821 338.386,211.488 337.5,214C 337.833,215.667 338.167,217.333 338.5,219C 336.02,219.915 335.353,221.415 336.5,223.5C 335.583,224.971 334.583,226.471 333.5,228C 334.5,229 335.5,230 336.5,231C 336.111,232.618 334.778,233.785 332.5,234.5C 332.846,235.696 333.346,235.696 334,234.5C 334.464,235.094 334.631,235.761 334.5,236.5C 330.833,236.5 327.167,236.5 323.5,236.5C 323.11,234.61 324.11,233.11 326.5,232C 325.692,231.692 325.025,231.192 324.5,230.5C 325.641,229.575 325.641,228.741 324.5,228C 327.223,224.829 328.223,221.329 327.5,217.5C 329.187,214.727 330.52,211.56 331.5,208C 330.833,207.333 330.167,206.667 329.5,206C 331.481,205.395 331.815,204.395 330.5,203C 332.658,201.688 332.991,200.022 331.5,198C 333.095,198.617 334.428,198.284 335.5,197C 335.015,194.32 334.682,191.653 334.5,189C 335.428,188.612 336.095,187.945 336.5,187C 336.108,185.989 335.441,185.489 334.5,185.5C 335.313,184.186 336.313,183.019 337.5,182C 336.48,179.926 336.48,177.76 337.5,175.5C 338.376,174.749 339.376,174.249 340.5,174C 340.384,172.732 340.051,171.398 339.5,170C 341.403,167.083 342.737,164.249 343.5,161.5C 343.377,158.956 343.377,156.456 343.5,154C 346.167,153.333 346.167,152.667 343.5,152C 344.401,149.429 345.734,147.096 347.5,145C 346.833,144.667 346.167,144.333 345.5,144C 347.527,142.604 347.86,140.938 346.5,139C 348.599,137.318 349.932,135.652 350.5,134C 349.833,133.667 349.167,133.333 348.5,133C 348.274,130.849 348.941,128.683 350.5,126.5C 350.291,125.914 349.957,125.414 349.5,125C 350.672,124.581 351.672,123.915 352.5,123C 351.542,121.853 351.875,120.853 353.5,120C 354.833,117.667 354.833,115.333 353.5,113C 355.032,112.3 356.032,111.134 356.5,109.5C 356.743,107.045 356.743,104.545 356.5,102C 358.658,100.688 358.991,99.0217 357.5,97C 359.698,94.2691 361.364,91.2691 362.5,88C 362.977,85.8587 362.977,83.5254 362.5,81C 363.069,78.0971 364.735,76.0971 367.5,75C 366.167,74.3333 366.167,73.6667 367.5,73C 364.536,72.1597 364.203,71.1597 366.5,70C 365.549,69.2825 365.383,68.4491 366,67.5C 366.667,68.8333 367.333,68.8333 368,67.5C 367.689,66.0654 367.855,64.7321 368.5,63.5C 370.64,61.4152 372.474,61.4152 374,63.5C 374.671,62.7476 375.504,62.4142 376.5,62.5 Z"/></g>
<g><path style="opacity:0.02" fill="#646df6" d="M 403.5,61.5 C 404.833,62.1667 404.833,62.1667 403.5,61.5 Z"/></g>
<g><path style="opacity:1" fill="#e6f5f5" d="M 158.5,48.5 C 164.5,50.1667 170.5,51.8333 176.5,53.5C 177.172,54.2674 178.005,54.9341 179,55.5C 182.882,63.9238 186.716,72.2572 190.5,80.5C 192.893,86.9529 195.56,93.2863 198.5,99.5C 200.656,105.804 203.322,111.804 206.5,117.5C 208.656,123.804 211.322,129.804 214.5,135.5C 216.707,142.906 219.707,149.906 223.5,156.5C 225.087,160.023 225.587,163.69 225,167.5C 223.188,168.977 221.355,170.31 219.5,171.5C 212.162,174.501 204.828,177.501 197.5,180.5C 192.833,182.5 188.167,184.5 183.5,186.5C 176.62,189.773 169.62,192.773 162.5,195.5C 157.415,197.64 152.415,199.973 147.5,202.5C 135.046,207.561 122.712,212.894 110.5,218.5C 103.833,221.167 97.1667,223.833 90.5,226.5C 102.18,203.807 113.846,181.14 125.5,158.5C 129.353,152.795 132.686,146.795 135.5,140.5C 138.072,136.361 140.405,132.027 142.5,127.5C 144.008,125.819 145.008,123.819 145.5,121.5C 147.341,119.151 148.674,116.485 149.5,113.5C 151.071,111.365 152.404,109.032 153.5,106.5C 156.405,101.693 159.072,96.6935 161.5,91.5C 163.025,89.7837 164.025,87.7837 164.5,85.5C 166.474,82.2301 168.474,78.8968 170.5,75.5C 170.376,74.8933 170.043,74.56 169.5,74.5C 168.361,71.082 167.028,67.7487 165.5,64.5C 164.87,62.2504 163.87,60.2504 162.5,58.5C 162.167,57.1667 161.833,55.8333 161.5,54.5C 160.5,52.5 159.5,50.5 158.5,48.5 Z"/></g>
<g><path style="opacity:0.02" fill="#646df6" d="M 401.5,66.5 C 402.833,67.1667 402.833,67.1667 401.5,66.5 Z"/></g>
<g><path style="opacity:0.02" fill="#646df6" d="M 407.5,66.5 C 407.5,66.8333 407.5,67.1667 407.5,67.5C 406.83,67.0187 406.83,66.6853 407.5,66.5 Z"/></g>
<g><path style="opacity:1" fill="#aaadf6" d="M 165.5,64.5 C 167.028,67.7487 168.361,71.082 169.5,74.5C 168.883,74.3893 168.383,74.056 168,73.5C 150.768,77.7821 133.602,81.1154 116.5,83.5C 102.575,82.3522 88.5748,82.1855 74.5,83C 73.3947,85.1203 73.3947,87.2869 74.5,89.5C 58.8094,91.8349 43.1427,94.6682 27.5,98C 24.7395,98.7218 22.0728,98.5552 19.5,97.5C 18.5592,95.9505 17.8925,94.2838 17.5,92.5C 66.785,84.0503 116.118,74.7169 165.5,64.5 Z"/></g>
<g><path style="opacity:0.02" fill="#646df6" d="M 399.5,68.5 C 400.833,69.1667 400.833,69.1667 399.5,68.5 Z"/></g>
<g><path style="opacity:0.02" fill="#646df6" d="M 399.5,71.5 C 400.885,72.9473 400.552,73.9473 398.5,74.5C 398.5,74.1667 398.5,73.8333 398.5,73.5C 399.338,73.1583 399.672,72.4916 399.5,71.5 Z"/></g>
<g><path style="opacity:0.02" fill="#646df6" d="M 401.5,71.5 C 404.797,71.3287 405.131,71.9954 402.5,73.5C 401.702,73.0431 401.369,72.3764 401.5,71.5 Z"/></g>
<g><path style="opacity:1" fill="#a0a4f6" d="M 169.5,74.5 C 170.043,74.56 170.376,74.8933 170.5,75.5C 168.474,78.8968 166.474,82.2301 164.5,85.5C 164.217,84.7109 163.717,84.0442 163,83.5C 145.578,87.3514 128.078,91.0181 110.5,94.5C 113.825,91.5145 115.825,87.8478 116.5,83.5C 133.602,81.1154 150.768,77.7821 168,73.5C 168.383,74.056 168.883,74.3893 169.5,74.5 Z"/></g>
<g><path style="opacity:0.02" fill="#646df6" d="M 398.5,79.5 C 398.5,79.1667 398.5,78.8333 398.5,78.5C 401.167,78.8333 401.167,79.1667 398.5,79.5 Z"/></g>
<g><path style="opacity:1" fill="#f4f5f6" d="M 116.5,83.5 C 115.825,87.8478 113.825,91.5145 110.5,94.5C 108.5,97.1667 106.5,99.8333 104.5,102.5C 100.779,106.888 97.4453,111.555 94.5,116.5C 92.9582,117.301 91.2915,117.634 89.5,117.5C 87.246,113.993 85.246,110.327 83.5,106.5C 82.5,104.5 81.5,102.5 80.5,100.5C 78.7381,96.6383 76.7381,92.9717 74.5,89.5C 73.3947,87.2869 73.3947,85.1203 74.5,83C 88.5748,82.1855 102.575,82.3522 116.5,83.5 Z"/></g>
<g><path style="opacity:1" fill="#999ef6" d="M 164.5,85.5 C 164.025,87.7837 163.025,89.7837 161.5,91.5C 142.487,95.0735 123.487,98.7402 104.5,102.5C 106.5,99.8333 108.5,97.1667 110.5,94.5C 128.078,91.0181 145.578,87.3514 163,83.5C 163.717,84.0442 164.217,84.7109 164.5,85.5 Z"/></g>
<g><path style="opacity:0.02" fill="#646df6" d="M 400.5,83.5 C 401.833,84.1667 401.833,84.1667 400.5,83.5 Z"/></g>
<g><path style="opacity:0.02" fill="#646df6" d="M 396.5,84.5 C 397.833,85.1667 397.833,85.1667 396.5,84.5 Z"/></g>
<g><path style="opacity:0.02" fill="#646df6" d="M 396.5,87.5 C 397.833,88.1667 397.833,88.1667 396.5,87.5 Z"/></g>
<g><path style="opacity:0.02" fill="#646df6" d="M 397.5,89.5 C 398.833,90.1667 398.833,90.1667 397.5,89.5 Z"/></g>
<g><path style="opacity:0.02" fill="#646df6" d="M 393.5,91.5 C 394.833,92.1667 394.833,92.1667 393.5,91.5 Z"/></g>
<g><path style="opacity:1" fill="#a1a5f6" d="M 74.5,89.5 C 76.7381,92.9717 78.7381,96.6383 80.5,100.5C 62.5568,102.823 44.5568,106.49 26.5,111.5C 25.607,109.703 24.2737,108.37 22.5,107.5C 22.6107,106.883 22.944,106.383 23.5,106C 21.7535,103.341 20.4202,100.508 19.5,97.5C 22.0728,98.5552 24.7395,98.7218 27.5,98C 43.1427,94.6682 58.8094,91.8349 74.5,89.5 Z"/></g>
<g><path style="opacity:0.02" fill="#646df6" d="M 393.5,95.5 C 393.5,95.1667 393.5,94.8333 393.5,94.5C 396.167,94.8333 396.167,95.1667 393.5,95.5 Z"/></g>
<g><path style="opacity:1" fill="#8e94f6" d="M 161.5,91.5 C 159.072,96.6935 156.405,101.693 153.5,106.5C 152.784,106.217 151.951,105.884 151,105.5C 147.162,106.334 143.162,107.668 139,109.5C 138.586,109.043 138.086,108.709 137.5,108.5C 133.294,110.265 129.128,110.931 125,110.5C 123.295,111.763 121.628,112.097 120,111.5C 119.072,113.335 117.906,113.668 116.5,112.5C 110.936,113.675 105.436,115.009 100,116.5C 99.6667,116.167 99.3333,115.833 99,115.5C 97.7741,117.548 96.2741,117.881 94.5,116.5C 97.4453,111.555 100.779,106.888 104.5,102.5C 123.487,98.7402 142.487,95.0735 161.5,91.5 Z"/></g>
<g><path style="opacity:0.02" fill="#646df6" d="M 395.5,99.5 C 396.833,100.167 396.833,100.167 395.5,99.5 Z"/></g>
<g><path style="opacity:1" fill="#999ef6" d="M 80.5,100.5 C 81.5,102.5 82.5,104.5 83.5,106.5C 66.1185,109.74 48.4519,113.24 30.5,117C 29.944,117.383 29.6107,117.883 29.5,118.5C 27.7073,116.574 26.7073,114.241 26.5,111.5C 44.5568,106.49 62.5568,102.823 80.5,100.5 Z"/></g>
<g><path style="opacity:0.02" fill="#646df6" d="M 391.5,100.5 C 392.833,101.167 392.833,101.167 391.5,100.5 Z"/></g>
<g><path style="opacity:0.02" fill="#646df6" d="M 391.5,103.5 C 392.833,104.167 392.833,104.167 391.5,103.5 Z"/></g>
<g><path style="opacity:1" fill="#868df6" d="M 153.5,106.5 C 152.404,109.032 151.071,111.365 149.5,113.5C 144.923,112.419 140.423,113.085 136,115.5C 132.935,115.393 129.935,115.393 127,115.5C 126.5,116 126,116.5 125.5,117C 97.3107,121.671 69.3107,127.171 41.5,133.5C 41.1373,134.183 40.8039,134.85 40.5,135.5C 38.9582,134.699 37.2915,134.366 35.5,134.5C 34.8333,132.5 34.1667,130.5 33.5,128.5C 52.2545,125.349 70.9211,121.682 89.5,117.5C 91.2915,117.634 92.9582,117.301 94.5,116.5C 96.2741,117.881 97.7741,117.548 99,115.5C 99.3333,115.833 99.6667,116.167 100,116.5C 105.436,115.009 110.936,113.675 116.5,112.5C 117.906,113.668 119.072,113.335 120,111.5C 121.628,112.097 123.295,111.763 125,110.5C 129.128,110.931 133.294,110.265 137.5,108.5C 138.086,108.709 138.586,109.043 139,109.5C 143.162,107.668 147.162,106.334 151,105.5C 151.951,105.884 152.784,106.217 153.5,106.5 Z"/></g>
<g><path style="opacity:0.02" fill="#646df6" d="M 392.5,105.5 C 393.833,106.167 393.833,106.167 392.5,105.5 Z"/></g>
<g><path style="opacity:0.02" fill="#646df6" d="M 389.5,108.5 C 389.897,107.475 390.563,107.308 391.5,108C 390.906,108.464 390.239,108.631 389.5,108.5 Z"/></g>
<g><path style="opacity:1" fill="#d3eef6" d="M 22.5,107.5 C 24.2737,108.37 25.607,109.703 26.5,111.5C 26.7073,114.241 27.7073,116.574 29.5,118.5C 30.2824,122.063 31.6157,125.397 33.5,128.5C 34.1667,130.5 34.8333,132.5 35.5,134.5C 29.7877,131.904 23.7877,130.238 17.5,129.5C 17.5,130.5 17.5,131.5 17.5,132.5C 16.0388,130.648 15.0388,128.482 14.5,126C 17.0438,119.749 19.7105,113.583 22.5,107.5 Z"/></g>
<g><path style="opacity:0.02" fill="#646df6" d="M 391.5,112.5 C 390.833,111.167 390.833,111.167 391.5,112.5 Z"/></g>
<g><path style="opacity:1" fill="#8e94f6" d="M 83.5,106.5 C 85.246,110.327 87.246,113.993 89.5,117.5C 70.9211,121.682 52.2545,125.349 33.5,128.5C 31.6157,125.397 30.2824,122.063 29.5,118.5C 29.6107,117.883 29.944,117.383 30.5,117C 48.4519,113.24 66.1185,109.74 83.5,106.5 Z"/></g>
<g><path style="opacity:1" fill="#8087f6" d="M 149.5,113.5 C 148.674,116.485 147.341,119.151 145.5,121.5C 139.877,120.808 134.21,121.475 128.5,123.5C 103.295,127.441 77.6287,132.441 51.5,138.5C 47.8935,137.348 44.2268,136.348 40.5,135.5C 40.8039,134.85 41.1373,134.183 41.5,133.5C 69.3107,127.171 97.3107,121.671 125.5,117C 126,116.5 126.5,116 127,115.5C 129.935,115.393 132.935,115.393 136,115.5C 140.423,113.085 144.923,112.419 149.5,113.5 Z"/></g>
<g><path style="opacity:0.02" fill="#646df6" d="M 388.5,112.5 C 389.833,113.167 389.833,113.167 388.5,112.5 Z"/></g>
<g><path style="opacity:0.02" fill="#646df6" d="M 391.5,112.5 C 392.833,113.167 392.833,113.167 391.5,112.5 Z"/></g>
<g><path style="opacity:0.02" fill="#646df6" d="M 387.5,118.5 C 387.369,117.761 387.536,117.094 388,116.5C 388.692,117.437 388.525,118.103 387.5,118.5 Z"/></g>
<g><path style="opacity:1" fill="#7a82f6" d="M 145.5,121.5 C 145.008,123.819 144.008,125.819 142.5,127.5C 139.432,127.527 136.266,127.527 133,127.5C 125.08,129.82 117.08,131.82 109,133.5C 108.667,133.167 108.333,132.833 108,132.5C 95.7008,135.186 83.7008,137.853 72,140.5C 71.6667,140.167 71.3333,139.833 71,139.5C 69.1222,140.053 67.6222,141.053 66.5,142.5C 61.5,141.167 56.5,139.833 51.5,138.5C 77.6287,132.441 103.295,127.441 128.5,123.5C 134.21,121.475 139.877,120.808 145.5,121.5 Z"/></g>
<g><path style="opacity:0.02" fill="#646df6" d="M 386.5,125.5 C 386.783,124.711 387.283,124.044 388,123.5C 388.528,124.816 388.028,125.483 386.5,125.5 Z"/></g>
<g><path style="opacity:1" fill="#eef3f5" d="M 35.5,134.5 C 37.2915,134.366 38.9582,134.699 40.5,135.5C 44.2268,136.348 47.8935,137.348 51.5,138.5C 56.5,139.833 61.5,141.167 66.5,142.5C 74.7726,144.985 83.106,147.319 91.5,149.5C 102.754,152.813 114.087,155.813 125.5,158.5C 113.846,181.14 102.18,203.807 90.5,226.5C 83.6214,230.106 76.6214,233.439 69.5,236.5C 66.7876,237.99 64.2876,237.656 62,235.5C 46.6039,201.378 31.7706,167.045 17.5,132.5C 17.5,131.5 17.5,130.5 17.5,129.5C 23.7877,130.238 29.7877,131.904 35.5,134.5 Z"/></g>
<g><path style="opacity:1" fill="#727af6" d="M 142.5,127.5 C 140.405,132.027 138.072,136.361 135.5,140.5C 128.833,141.133 122.333,142.467 116,144.5C 115.667,144.167 115.333,143.833 115,143.5C 106.936,144.974 99.1031,146.974 91.5,149.5C 83.106,147.319 74.7726,144.985 66.5,142.5C 67.6222,141.053 69.1222,140.053 71,139.5C 71.3333,139.833 71.6667,140.167 72,140.5C 83.7008,137.853 95.7008,135.186 108,132.5C 108.333,132.833 108.667,133.167 109,133.5C 117.08,131.82 125.08,129.82 133,127.5C 136.266,127.527 139.432,127.527 142.5,127.5 Z"/></g>
<g><path style="opacity:0.02" fill="#646df6" d="M 383.5,135.5 C 383.369,134.761 383.536,134.094 384,133.5C 384.692,134.437 384.525,135.103 383.5,135.5 Z"/></g>
<g><path style="opacity:0.02" fill="#646df6" d="M 381.5,138.5 C 382.833,139.167 382.833,139.167 381.5,138.5 Z"/></g>
<g><path style="opacity:0.02" fill="#646df6" d="M 380.5,140.5 C 381.833,141.167 381.833,141.167 380.5,140.5 Z"/></g>
<g><path style="opacity:0.02" fill="#646df6" d="M 382.5,142.5 C 383.833,143.167 383.833,143.167 382.5,142.5 Z"/></g>
<g><path style="opacity:1" fill="#6871f6" d="M 135.5,140.5 C 132.686,146.795 129.353,152.795 125.5,158.5C 114.087,155.813 102.754,152.813 91.5,149.5C 99.1031,146.974 106.936,144.974 115,143.5C 115.333,143.833 115.667,144.167 116,144.5C 122.333,142.467 128.833,141.133 135.5,140.5 Z"/></g>
<g><path style="opacity:0.02" fill="#646df6" d="M 379.5,149.5 C 380.833,150.167 380.833,150.167 379.5,149.5 Z"/></g>
<g><path style="opacity:0.02" fill="#646df6" d="M 379.5,151.5 C 380.833,152.167 380.833,152.167 379.5,151.5 Z"/></g>
<g><path style="opacity:0.02" fill="#646df6" d="M 379.5,153.5 C 380.833,154.167 380.833,154.167 379.5,153.5 Z"/></g>
<g><path style="opacity:0.02" fill="#646df6" d="M 379.5,157.5 C 380.833,158.167 380.833,158.167 379.5,157.5 Z"/></g>
<g><path style="opacity:0.02" fill="#646df6" d="M 377.5,158.5 C 378.833,159.167 378.833,159.167 377.5,158.5 Z"/></g>
<g><path style="opacity:0.02" fill="#646df6" d="M 376.5,160.5 C 377.833,161.167 377.833,161.167 376.5,160.5 Z"/></g>
<g><path style="opacity:0.02" fill="#646df6" d="M 374.5,166.5 C 375.833,167.167 375.833,167.167 374.5,166.5 Z"/></g>
<g><path style="opacity:0.02" fill="#646df6" d="M 377.5,167.5 C 378.833,168.167 378.833,168.167 377.5,167.5 Z"/></g>
<g><path style="opacity:0.02" fill="#646df6" d="M 375.5,168.5 C 376.833,169.167 376.833,169.167 375.5,168.5 Z"/></g>
<g><path style="opacity:0.02" fill="#646df6" d="M 375.5,169.5 C 374.833,170.167 374.833,170.167 375.5,169.5 Z"/></g>
<g><path style="opacity:0.02" fill="#646df6" d="M 374.5,171.5 C 375.833,172.167 375.833,172.167 374.5,171.5 Z"/></g>
<g><path style="opacity:0.02" fill="#646df6" d="M 374.5,173.5 C 375.833,174.167 375.833,174.167 374.5,173.5 Z"/></g>
<g><path style="opacity:1" fill="#9a9ef6" d="M 219.5,171.5 C 219.201,175.442 217.867,179.275 215.5,183C 216.167,183.333 216.833,183.667 217.5,184C 216.5,185 215.5,186 214.5,187C 215.167,187.333 215.833,187.667 216.5,188C 215.12,189.324 214.786,190.657 215.5,192C 214.692,192.308 214.025,192.808 213.5,193.5C 213.075,195.149 213.075,196.983 213.5,199C 211.699,199.317 211.366,199.984 212.5,201C 210.475,202.194 210.141,203.694 211.5,205.5C 210.39,210.103 209.057,214.269 207.5,218C 207.645,218.772 207.978,219.439 208.5,220C 206.972,222.917 205.639,225.917 204.5,229C 205.634,230.016 205.301,230.683 203.5,231C 203.833,232 204.167,233 204.5,234C 202.381,234.342 202.047,235.175 203.5,236.5C 196.833,236.5 190.167,236.5 183.5,236.5C 184.26,230.511 185.927,224.511 188.5,218.5C 187.529,217.038 187.862,215.705 189.5,214.5C 188.141,212.694 188.475,211.194 190.5,210C 189.542,208.853 189.875,207.853 191.5,207C 191.043,206.586 190.709,206.086 190.5,205.5C 192.077,200.934 193.743,196.434 195.5,192C 193.009,191.374 193.009,190.541 195.5,189.5C 195.291,188.914 194.957,188.414 194.5,188C 195.642,185.55 196.642,183.05 197.5,180.5C 204.828,177.501 212.162,174.501 219.5,171.5 Z"/></g>
<g><path style="opacity:1" fill="#a1a4f6" d="M 197.5,180.5 C 196.642,183.05 195.642,185.55 194.5,188C 194.957,188.414 195.291,188.914 195.5,189.5C 193.009,190.541 193.009,191.374 195.5,192C 193.743,196.434 192.077,200.934 190.5,205.5C 190.709,206.086 191.043,206.586 191.5,207C 189.875,207.853 189.542,208.853 190.5,210C 188.475,211.194 188.141,212.694 189.5,214.5C 187.862,215.705 187.529,217.038 188.5,218.5C 185.927,224.511 184.26,230.511 183.5,236.5C 179.167,236.5 174.833,236.5 170.5,236.5C 172.338,234.339 172.672,232.005 171.5,229.5C 172.441,229.511 173.108,229.011 173.5,228C 171.859,226.354 172.193,225.354 174.5,225C 174.539,223.755 174.205,222.422 173.5,221C 175.466,218.153 176.132,215.153 175.5,212C 176.833,209.667 178.167,207.333 179.5,205C 179.167,204.667 178.833,204.333 178.5,204C 179.588,200.519 180.921,197.185 182.5,194C 181.978,193.439 181.645,192.772 181.5,192C 182.32,190.2 182.986,188.366 183.5,186.5C 188.167,184.5 192.833,182.5 197.5,180.5 Z"/></g>
<g><path style="opacity:0.02" fill="#646df6" d="M 370.5,182.5 C 370.833,182.5 371.167,182.5 371.5,182.5C 371.315,183.17 370.981,183.17 370.5,182.5 Z"/></g>
<g><path style="opacity:0.02" fill="#646df6" d="M 373.5,186.5 C 374.833,187.167 374.833,187.167 373.5,186.5 Z"/></g>
<g><path style="opacity:0.02" fill="#646df6" d="M 369.5,188.5 C 369.833,188.5 370.167,188.5 370.5,188.5C 370.5,189.833 369.833,190.5 368.5,190.5C 368.5,190.167 368.5,189.833 368.5,189.5C 369.167,189.5 369.5,189.167 369.5,188.5 Z"/></g>
<g><path style="opacity:1" fill="#aaacf6" d="M 183.5,186.5 C 182.986,188.366 182.32,190.2 181.5,192C 181.645,192.772 181.978,193.439 182.5,194C 180.921,197.185 179.588,200.519 178.5,204C 178.833,204.333 179.167,204.667 179.5,205C 178.167,207.333 176.833,209.667 175.5,212C 176.132,215.153 175.466,218.153 173.5,221C 174.205,222.422 174.539,223.755 174.5,225C 172.193,225.354 171.859,226.354 173.5,228C 173.108,229.011 172.441,229.511 171.5,229.5C 172.672,232.005 172.338,234.339 170.5,236.5C 164.5,236.5 158.5,236.5 152.5,236.5C 153.363,235.06 153.363,233.726 152.5,232.5C 155.707,220.428 159.041,208.094 162.5,195.5C 169.62,192.773 176.62,189.773 183.5,186.5 Z"/></g>
<g><path style="opacity:0.02" fill="#646df6" d="M 370.5,191.5 C 371.833,192.167 371.833,192.167 370.5,191.5 Z"/></g>
<g><path style="opacity:1" fill="#b1b3f5" d="M 162.5,195.5 C 159.041,208.094 155.707,220.428 152.5,232.5C 153.363,233.726 153.363,235.06 152.5,236.5C 147.5,236.5 142.5,236.5 137.5,236.5C 139.974,233.842 141.64,230.675 142.5,227C 142.745,225.089 142.745,223.089 142.5,221C 145.26,215.372 147.26,209.705 148.5,204C 147.944,203.617 147.611,203.117 147.5,202.5C 152.415,199.973 157.415,197.64 162.5,195.5 Z"/></g>
<g><path style="opacity:0.02" fill="#646df6" d="M 366.5,198.5 C 367.833,199.167 367.833,199.167 366.5,198.5 Z"/></g>
<g><path style="opacity:1" fill="#bdbef5" d="M 147.5,202.5 C 147.611,203.117 147.944,203.617 148.5,204C 147.26,209.705 145.26,215.372 142.5,221C 142.745,223.089 142.745,225.089 142.5,227C 141.64,230.675 139.974,233.842 137.5,236.5C 128.167,236.5 118.833,236.5 109.5,236.5C 111.512,235.476 113.178,233.976 114.5,232C 111.756,231.197 109.089,230.197 106.5,229C 107.563,227.812 108.897,227.312 110.5,227.5C 110.055,224.635 110.722,222.135 112.5,220C 111.584,219.722 110.918,219.222 110.5,218.5C 122.712,212.894 135.046,207.561 147.5,202.5 Z"/></g>
<g><path style="opacity:0.02" fill="#646df6" d="M 365.5,208.5 C 366.573,209.251 366.74,210.251 366,211.5C 365.517,210.552 365.351,209.552 365.5,208.5 Z"/></g>
<g><path style="opacity:0.02" fill="#646df6" d="M 363.5,214.5 C 364.833,215.167 364.833,215.167 363.5,214.5 Z"/></g>
<g><path style="opacity:0.044" fill="#464fc4" d="M -0.5,217.5 C 25.4294,232.8 52.7628,244.8 81.5,253.5C 79.5,253.5 77.5,253.5 75.5,253.5C 49.2141,244.844 23.8808,233.844 -0.5,220.5C -0.5,219.5 -0.5,218.5 -0.5,217.5 Z"/></g>
<g><path style="opacity:0.02" fill="#646df6" d="M 363.5,220.5 C 363.369,219.761 363.536,219.094 364,218.5C 364.692,219.437 364.525,220.103 363.5,220.5 Z"/></g>
<g><path style="opacity:0.02" fill="#646df6" d="M 362.5,220.5 C 362.833,220.5 363.167,220.5 363.5,220.5C 363.315,221.17 362.981,221.17 362.5,220.5 Z"/></g>
<g><path style="opacity:0.02" fill="#646df6" d="M 364.5,221.5 C 365.833,222.167 365.833,222.167 364.5,221.5 Z"/></g>
<g><path style="opacity:0.02" fill="#646df6" d="M 362.5,222.5 C 363.167,222.5 363.833,222.5 364.5,222.5C 363.833,223.833 363.167,223.833 362.5,222.5 Z"/></g>
<g><path style="opacity:0.02" fill="#646df6" d="M 361.5,225.5 C 362.833,226.167 362.833,226.167 361.5,225.5 Z"/></g>
<g><path style="opacity:1" fill="#cac9ef" d="M 110.5,218.5 C 110.918,219.222 111.584,219.722 112.5,220C 110.722,222.135 110.055,224.635 110.5,227.5C 108.897,227.312 107.563,227.812 106.5,229C 109.089,230.197 111.756,231.197 114.5,232C 113.178,233.976 111.512,235.476 109.5,236.5C 96.1667,236.5 82.8333,236.5 69.5,236.5C 76.6214,233.439 83.6214,230.106 90.5,226.5C 97.1667,223.833 103.833,221.167 110.5,218.5 Z"/></g>
<g><path style="opacity:0.02" fill="#646df6" d="M 360.5,227.5 C 361.167,227.5 361.5,227.833 361.5,228.5C 361.167,228.167 360.833,227.833 360.5,227.5 Z"/></g>
<g><path style="opacity:0.02" fill="#646df6" d="M 359.5,228.5 C 359.833,228.5 360.167,228.5 360.5,228.5C 360.315,229.17 359.981,229.17 359.5,228.5 Z"/></g>
<g><path style="opacity:0.02" fill="#646df6" d="M 361.5,228.5 C 362.833,229.167 362.833,229.167 361.5,228.5 Z"/></g>
<g><path style="opacity:0.02" fill="#646df6" d="M 359.5,231.5 C 360.833,232.167 360.833,232.167 359.5,231.5 Z"/></g>
<g><path style="opacity:0.02" fill="#646df6" d="M 357.5,233.5 C 358.833,234.167 358.833,234.167 357.5,233.5 Z"/></g>
<g><path style="opacity:0.045" fill="#4d56d7" d="M 407.5,249.5 C 407.5,250.167 407.5,250.833 407.5,251.5C 404.933,251.721 402.599,252.388 400.5,253.5C 397.833,253.5 395.167,253.5 392.5,253.5C 397.272,251.722 402.272,250.389 407.5,249.5 Z"/></g>
</svg>
